<?xml version="1.0" encoding="utf-8" standalone="no"?>
<!DOCTYPE svg PUBLIC "-//W3C//DTD SVG 1.1//EN"
  "http://www.w3.org/Graphics/SVG/1.1/DTD/svg11.dtd">
<svg xmlns:xlink="http://www.w3.org/1999/xlink" width="864pt" height="360pt" viewBox="0 0 864 360" xmlns="http://www.w3.org/2000/svg" version="1.1">
 <metadata>
  <rdf:RDF xmlns:dc="http://purl.org/dc/elements/1.1/" xmlns:cc="http://creativecommons.org/ns#" xmlns:rdf="http://www.w3.org/1999/02/22-rdf-syntax-ns#">
   <cc:Work>
    <dc:type rdf:resource="http://purl.org/dc/dcmitype/StillImage"/>
    <dc:format>image/svg+xml</dc:format>
    <dc:creator>
     <cc:Agent>
      <dc:title>Matplotlib v3.11.0, https://matplotlib.org/</dc:title>
     </cc:Agent>
    </dc:creator>
   </cc:Work>
  </rdf:RDF>
 </metadata>
 <defs>
  <style type="text/css">*{stroke-linejoin: round; stroke-linecap: butt}</style>
 </defs>
 <g id="figure_1">
  <g id="patch_1">
   <path d="M 0 360
L 864 360
L 864 0
L 0 0
z
" style="fill: #ffffff"/>
  </g>
  <g id="axes_1">
   <g id="patch_2">
    <path d="M 46.436959 300.429436
L 292.421635 300.429436
L 292.421635 55.325017
L 46.436959 55.325017
z
" style="fill: #ffffff"/>
   </g>
   <g id="matplotlib.axis_1">
    <g id="xtick_1">
     <g id="line2d_1">
      <defs>
       <path id="m3d4b9ce84c" d="M 0 0
L 0 3.5
" style="stroke: #000000; stroke-width: 0.8"/>
      </defs>
      <g>
       <use xlink:href="#m3d4b9ce84c" x="83.420669" y="300.429436" style="stroke: #000000; stroke-width: 0.8"/>
      </g>
     </g>
     <g id="text_1">
      <!-- B+ -->
      <g transform="translate(76.562388 315.168206) scale(0.09 -0.09)">
       <defs>
        <path id="DejaVuSans-25" d="M 1259 2228
L 1259 519
L 2272 519
Q 2781 519 3026 730
Q 3272 941 3272 1375
Q 3272 1813 3026 2020
Q 2781 2228 2272 2228
L 1259 2228
z
M 1259 4147
L 1259 2741
L 2194 2741
Q 2656 2741 2882 2914
Q 3109 3088 3109 3444
Q 3109 3797 2882 3972
Q 2656 4147 2194 4147
L 1259 4147
z
M 628 4666
L 2241 4666
Q 2963 4666 3353 4366
Q 3744 4066 3744 3513
Q 3744 3084 3544 2831
Q 3344 2578 2956 2516
Q 3422 2416 3680 2098
Q 3938 1781 3938 1306
Q 3938 681 3513 340
Q 3088 0 2303 0
L 628 0
L 628 4666
z
" transform="scale(0.015625)"/>
        <path id="DejaVuSans-e" d="M 2944 4013
L 2944 2272
L 4684 2272
L 4684 1741
L 2944 1741
L 2944 0
L 2419 0
L 2419 1741
L 678 1741
L 678 2272
L 2419 2272
L 2419 4013
L 2944 4013
z
" transform="scale(0.015625)"/>
       </defs>
       <use xlink:href="#DejaVuSans-25"/>
       <use xlink:href="#DejaVuSans-e" transform="translate(68.609375 0)"/>
      </g>
      <!-- agrupado -->
      <g transform="translate(61.879731 325.970667) scale(0.09 -0.09)">
       <defs>
        <path id="DejaVuSans-44" d="M 2194 1759
Q 1497 1759 1228 1600
Q 959 1441 959 1056
Q 959 750 1161 570
Q 1363 391 1709 391
Q 2188 391 2477 730
Q 2766 1069 2766 1631
L 2766 1759
L 2194 1759
z
M 3341 1997
L 3341 0
L 2766 0
L 2766 531
Q 2569 213 2275 61
Q 1981 -91 1556 -91
Q 1019 -91 701 211
Q 384 513 384 1019
Q 384 1609 779 1909
Q 1175 2209 1959 2209
L 2766 2209
L 2766 2266
Q 2766 2663 2505 2880
Q 2244 3097 1772 3097
Q 1472 3097 1187 3025
Q 903 2953 641 2809
L 641 3341
Q 956 3463 1253 3523
Q 1550 3584 1831 3584
Q 2591 3584 2966 3190
Q 3341 2797 3341 1997
z
" transform="scale(0.015625)"/>
        <path id="DejaVuSans-4a" d="M 2906 1791
Q 2906 2416 2648 2759
Q 2391 3103 1925 3103
Q 1463 3103 1205 2759
Q 947 2416 947 1791
Q 947 1169 1205 825
Q 1463 481 1925 481
Q 2391 481 2648 825
Q 2906 1169 2906 1791
z
M 3481 434
Q 3481 -459 3084 -895
Q 2688 -1331 1869 -1331
Q 1566 -1331 1297 -1286
Q 1028 -1241 775 -1147
L 775 -588
Q 1028 -725 1275 -790
Q 1522 -856 1778 -856
Q 2344 -856 2625 -561
Q 2906 -266 2906 331
L 2906 616
Q 2728 306 2450 153
Q 2172 0 1784 0
Q 1141 0 747 490
Q 353 981 353 1791
Q 353 2603 747 3093
Q 1141 3584 1784 3584
Q 2172 3584 2450 3431
Q 2728 3278 2906 2969
L 2906 3500
L 3481 3500
L 3481 434
z
" transform="scale(0.015625)"/>
        <path id="DejaVuSans-55" d="M 2631 2963
Q 2534 3019 2420 3045
Q 2306 3072 2169 3072
Q 1681 3072 1420 2755
Q 1159 2438 1159 1844
L 1159 0
L 581 0
L 581 3500
L 1159 3500
L 1159 2956
Q 1341 3275 1631 3429
Q 1922 3584 2338 3584
Q 2397 3584 2469 3576
Q 2541 3569 2628 3553
L 2631 2963
z
" transform="scale(0.015625)"/>
        <path id="DejaVuSans-58" d="M 544 1381
L 544 3500
L 1119 3500
L 1119 1403
Q 1119 906 1312 657
Q 1506 409 1894 409
Q 2359 409 2629 706
Q 2900 1003 2900 1516
L 2900 3500
L 3475 3500
L 3475 0
L 2900 0
L 2900 538
Q 2691 219 2414 64
Q 2138 -91 1772 -91
Q 1169 -91 856 284
Q 544 659 544 1381
z
M 1991 3584
L 1991 3584
z
" transform="scale(0.015625)"/>
        <path id="DejaVuSans-53" d="M 1159 525
L 1159 -1331
L 581 -1331
L 581 3500
L 1159 3500
L 1159 2969
Q 1341 3281 1617 3432
Q 1894 3584 2278 3584
Q 2916 3584 3314 3078
Q 3713 2572 3713 1747
Q 3713 922 3314 415
Q 2916 -91 2278 -91
Q 1894 -91 1617 61
Q 1341 213 1159 525
z
M 3116 1747
Q 3116 2381 2855 2742
Q 2594 3103 2138 3103
Q 1681 3103 1420 2742
Q 1159 2381 1159 1747
Q 1159 1113 1420 752
Q 1681 391 2138 391
Q 2594 391 2855 752
Q 3116 1113 3116 1747
z
" transform="scale(0.015625)"/>
        <path id="DejaVuSans-47" d="M 2906 2969
L 2906 4863
L 3481 4863
L 3481 0
L 2906 0
L 2906 525
Q 2725 213 2448 61
Q 2172 -91 1784 -91
Q 1150 -91 751 415
Q 353 922 353 1747
Q 353 2572 751 3078
Q 1150 3584 1784 3584
Q 2172 3584 2448 3432
Q 2725 3281 2906 2969
z
M 947 1747
Q 947 1113 1208 752
Q 1469 391 1925 391
Q 2381 391 2643 752
Q 2906 1113 2906 1747
Q 2906 2381 2643 2742
Q 2381 3103 1925 3103
Q 1469 3103 1208 2742
Q 947 2381 947 1747
z
" transform="scale(0.015625)"/>
        <path id="DejaVuSans-52" d="M 1959 3097
Q 1497 3097 1228 2736
Q 959 2375 959 1747
Q 959 1119 1226 758
Q 1494 397 1959 397
Q 2419 397 2687 759
Q 2956 1122 2956 1747
Q 2956 2369 2687 2733
Q 2419 3097 1959 3097
z
M 1959 3584
Q 2709 3584 3137 3096
Q 3566 2609 3566 1747
Q 3566 888 3137 398
Q 2709 -91 1959 -91
Q 1206 -91 779 398
Q 353 888 353 1747
Q 353 2609 779 3096
Q 1206 3584 1959 3584
z
" transform="scale(0.015625)"/>
       </defs>
       <use xlink:href="#DejaVuSans-44"/>
       <use xlink:href="#DejaVuSans-4a" transform="translate(61.28125 0)"/>
       <use xlink:href="#DejaVuSans-55" transform="translate(124.765625 0)"/>
       <use xlink:href="#DejaVuSans-58" transform="translate(165.875 0)"/>
       <use xlink:href="#DejaVuSans-53" transform="translate(229.25 0)"/>
       <use xlink:href="#DejaVuSans-44" transform="translate(292.734375 0)"/>
       <use xlink:href="#DejaVuSans-47" transform="translate(354.015625 0)"/>
       <use xlink:href="#DejaVuSans-52" transform="translate(417.5 0)"/>
      </g>
     </g>
    </g>
    <g id="xtick_2">
     <g id="line2d_2">
      <g>
       <use xlink:href="#m3d4b9ce84c" x="169.429297" y="300.429436" style="stroke: #000000; stroke-width: 0.8"/>
      </g>
     </g>
     <g id="text_2">
      <!-- B+ -->
      <g transform="translate(162.571016 315.168206) scale(0.09 -0.09)">
       <use xlink:href="#DejaVuSans-25"/>
       <use xlink:href="#DejaVuSans-e" transform="translate(68.609375 0)"/>
      </g>
      <!-- no agrupado -->
      <g transform="translate(140.852891 325.970667) scale(0.09 -0.09)">
       <defs>
        <path id="DejaVuSans-51" d="M 3513 2113
L 3513 0
L 2938 0
L 2938 2094
Q 2938 2591 2744 2837
Q 2550 3084 2163 3084
Q 1697 3084 1428 2787
Q 1159 2491 1159 1978
L 1159 0
L 581 0
L 581 3500
L 1159 3500
L 1159 2956
Q 1366 3272 1645 3428
Q 1925 3584 2291 3584
Q 2894 3584 3203 3211
Q 3513 2838 3513 2113
z
" transform="scale(0.015625)"/>
        <path id="DejaVuSans-3" transform="scale(0.015625)"/>
       </defs>
       <use xlink:href="#DejaVuSans-51"/>
       <use xlink:href="#DejaVuSans-52" transform="translate(63.375 0)"/>
       <use xlink:href="#DejaVuSans-3" transform="translate(124.5625 0)"/>
       <use xlink:href="#DejaVuSans-44" transform="translate(156.34375 0)"/>
       <use xlink:href="#DejaVuSans-4a" transform="translate(217.625 0)"/>
       <use xlink:href="#DejaVuSans-55" transform="translate(281.109375 0)"/>
       <use xlink:href="#DejaVuSans-58" transform="translate(322.21875 0)"/>
       <use xlink:href="#DejaVuSans-53" transform="translate(385.59375 0)"/>
       <use xlink:href="#DejaVuSans-44" transform="translate(449.078125 0)"/>
       <use xlink:href="#DejaVuSans-47" transform="translate(510.359375 0)"/>
       <use xlink:href="#DejaVuSans-52" transform="translate(573.84375 0)"/>
      </g>
     </g>
    </g>
    <g id="xtick_3">
     <g id="line2d_3">
      <g>
       <use xlink:href="#m3d4b9ce84c" x="255.437925" y="300.429436" style="stroke: #000000; stroke-width: 0.8"/>
      </g>
     </g>
     <g id="text_3">
      <!-- Hash -->
      <g transform="translate(244.100034 315.168909) scale(0.09 -0.09)">
       <defs>
        <path id="DejaVuSans-2b" d="M 628 4666
L 1259 4666
L 1259 2753
L 3553 2753
L 3553 4666
L 4184 4666
L 4184 0
L 3553 0
L 3553 2222
L 1259 2222
L 1259 0
L 628 0
L 628 4666
z
" transform="scale(0.015625)"/>
        <path id="DejaVuSans-56" d="M 2834 3397
L 2834 2853
Q 2591 2978 2328 3040
Q 2066 3103 1784 3103
Q 1356 3103 1142 2972
Q 928 2841 928 2578
Q 928 2378 1081 2264
Q 1234 2150 1697 2047
L 1894 2003
Q 2506 1872 2764 1633
Q 3022 1394 3022 966
Q 3022 478 2636 193
Q 2250 -91 1575 -91
Q 1294 -91 989 -36
Q 684 19 347 128
L 347 722
Q 666 556 975 473
Q 1284 391 1588 391
Q 1994 391 2212 530
Q 2431 669 2431 922
Q 2431 1156 2273 1281
Q 2116 1406 1581 1522
L 1381 1569
Q 847 1681 609 1914
Q 372 2147 372 2553
Q 372 3047 722 3315
Q 1072 3584 1716 3584
Q 2034 3584 2315 3537
Q 2597 3491 2834 3397
z
" transform="scale(0.015625)"/>
        <path id="DejaVuSans-4b" d="M 3513 2113
L 3513 0
L 2938 0
L 2938 2094
Q 2938 2591 2744 2837
Q 2550 3084 2163 3084
Q 1697 3084 1428 2787
Q 1159 2491 1159 1978
L 1159 0
L 581 0
L 581 4863
L 1159 4863
L 1159 2956
Q 1366 3272 1645 3428
Q 1925 3584 2291 3584
Q 2894 3584 3203 3211
Q 3513 2838 3513 2113
z
" transform="scale(0.015625)"/>
       </defs>
       <use xlink:href="#DejaVuSans-2b"/>
       <use xlink:href="#DejaVuSans-44" transform="translate(75.203125 0)"/>
       <use xlink:href="#DejaVuSans-56" transform="translate(136.484375 0)"/>
       <use xlink:href="#DejaVuSans-4b" transform="translate(188.578125 0)"/>
      </g>
      <!-- extensible -->
      <g transform="translate(232.229175 325.97137) scale(0.09 -0.09)">
       <defs>
        <path id="DejaVuSans-48" d="M 3597 1894
L 3597 1613
L 953 1613
Q 991 1019 1311 708
Q 1631 397 2203 397
Q 2534 397 2845 478
Q 3156 559 3463 722
L 3463 178
Q 3153 47 2828 -22
Q 2503 -91 2169 -91
Q 1331 -91 842 396
Q 353 884 353 1716
Q 353 2575 817 3079
Q 1281 3584 2069 3584
Q 2775 3584 3186 3129
Q 3597 2675 3597 1894
z
M 3022 2063
Q 3016 2534 2758 2815
Q 2500 3097 2075 3097
Q 1594 3097 1305 2825
Q 1016 2553 972 2059
L 3022 2063
z
" transform="scale(0.015625)"/>
        <path id="DejaVuSans-5b" d="M 3513 3500
L 2247 1797
L 3578 0
L 2900 0
L 1881 1375
L 863 0
L 184 0
L 1544 1831
L 300 3500
L 978 3500
L 1906 2253
L 2834 3500
L 3513 3500
z
" transform="scale(0.015625)"/>
        <path id="DejaVuSans-57" d="M 1172 4494
L 1172 3500
L 2356 3500
L 2356 3053
L 1172 3053
L 1172 1153
Q 1172 725 1289 603
Q 1406 481 1766 481
L 2356 481
L 2356 0
L 1766 0
Q 1100 0 847 248
Q 594 497 594 1153
L 594 3053
L 172 3053
L 172 3500
L 594 3500
L 594 4494
L 1172 4494
z
" transform="scale(0.015625)"/>
        <path id="DejaVuSans-4c" d="M 603 3500
L 1178 3500
L 1178 0
L 603 0
L 603 3500
z
M 603 4863
L 1178 4863
L 1178 4134
L 603 4134
L 603 4863
z
" transform="scale(0.015625)"/>
        <path id="DejaVuSans-45" d="M 3116 1747
Q 3116 2381 2855 2742
Q 2594 3103 2138 3103
Q 1681 3103 1420 2742
Q 1159 2381 1159 1747
Q 1159 1113 1420 752
Q 1681 391 2138 391
Q 2594 391 2855 752
Q 3116 1113 3116 1747
z
M 1159 2969
Q 1341 3281 1617 3432
Q 1894 3584 2278 3584
Q 2916 3584 3314 3078
Q 3713 2572 3713 1747
Q 3713 922 3314 415
Q 2916 -91 2278 -91
Q 1894 -91 1617 61
Q 1341 213 1159 525
L 1159 0
L 581 0
L 581 4863
L 1159 4863
L 1159 2969
z
" transform="scale(0.015625)"/>
        <path id="DejaVuSans-4f" d="M 603 4863
L 1178 4863
L 1178 0
L 603 0
L 603 4863
z
" transform="scale(0.015625)"/>
       </defs>
       <use xlink:href="#DejaVuSans-48"/>
       <use xlink:href="#DejaVuSans-5b" transform="translate(59.78125 0)"/>
       <use xlink:href="#DejaVuSans-57" transform="translate(118.96875 0)"/>
       <use xlink:href="#DejaVuSans-48" transform="translate(158.171875 0)"/>
       <use xlink:href="#DejaVuSans-51" transform="translate(219.703125 0)"/>
       <use xlink:href="#DejaVuSans-56" transform="translate(283.078125 0)"/>
       <use xlink:href="#DejaVuSans-4c" transform="translate(335.171875 0)"/>
       <use xlink:href="#DejaVuSans-45" transform="translate(362.953125 0)"/>
       <use xlink:href="#DejaVuSans-4f" transform="translate(426.4375 0)"/>
       <use xlink:href="#DejaVuSans-48" transform="translate(454.21875 0)"/>
      </g>
     </g>
    </g>
   </g>
   <g id="matplotlib.axis_2">
    <g id="ytick_1">
     <g id="line2d_4">
      <path d="M 46.436959 300.429436
L 292.421635 300.429436
" clip-path="url(#pc38571ec99)" style="fill: none; stroke: #b0b0b0; stroke-opacity: 0.2; stroke-width: 0.8; stroke-linecap: square"/>
     </g>
     <g id="line2d_5">
      <defs>
       <path id="m1915d4e273" d="M 0 0
L -3.5 0
" style="stroke: #000000; stroke-width: 0.8"/>
      </defs>
      <g>
       <use xlink:href="#m1915d4e273" x="46.436959" y="300.429436" style="stroke: #000000; stroke-width: 0.8"/>
      </g>
     </g>
     <g id="text_4">
      <!-- 0.00 -->
      <g transform="translate(17.171334 304.228264) scale(0.1 -0.1)">
       <defs>
        <path id="DejaVuSans-13" d="M 2034 4250
Q 1547 4250 1301 3770
Q 1056 3291 1056 2328
Q 1056 1369 1301 889
Q 1547 409 2034 409
Q 2525 409 2770 889
Q 3016 1369 3016 2328
Q 3016 3291 2770 3770
Q 2525 4250 2034 4250
z
M 2034 4750
Q 2819 4750 3233 4129
Q 3647 3509 3647 2328
Q 3647 1150 3233 529
Q 2819 -91 2034 -91
Q 1250 -91 836 529
Q 422 1150 422 2328
Q 422 3509 836 4129
Q 1250 4750 2034 4750
z
" transform="scale(0.015625)"/>
        <path id="DejaVuSans-11" d="M 684 794
L 1344 794
L 1344 0
L 684 0
L 684 794
z
" transform="scale(0.015625)"/>
       </defs>
       <use xlink:href="#DejaVuSans-13"/>
       <use xlink:href="#DejaVuSans-11" transform="translate(63.625 0)"/>
       <use xlink:href="#DejaVuSans-13" transform="translate(95.40625 0)"/>
       <use xlink:href="#DejaVuSans-13" transform="translate(159.03125 0)"/>
      </g>
     </g>
    </g>
    <g id="ytick_2">
     <g id="line2d_6">
      <path d="M 46.436959 266.964513
L 292.421635 266.964513
" clip-path="url(#pc38571ec99)" style="fill: none; stroke: #b0b0b0; stroke-opacity: 0.2; stroke-width: 0.8; stroke-linecap: square"/>
     </g>
     <g id="line2d_7">
      <g>
       <use xlink:href="#m1915d4e273" x="46.436959" y="266.964513" style="stroke: #000000; stroke-width: 0.8"/>
      </g>
     </g>
     <g id="text_5">
      <!-- 0.01 -->
      <g transform="translate(17.171334 270.763341) scale(0.1 -0.1)">
       <defs>
        <path id="DejaVuSans-14" d="M 794 531
L 1825 531
L 1825 4091
L 703 3866
L 703 4441
L 1819 4666
L 2450 4666
L 2450 531
L 3481 531
L 3481 0
L 794 0
L 794 531
z
" transform="scale(0.015625)"/>
       </defs>
       <use xlink:href="#DejaVuSans-13"/>
       <use xlink:href="#DejaVuSans-11" transform="translate(63.625 0)"/>
       <use xlink:href="#DejaVuSans-13" transform="translate(95.40625 0)"/>
       <use xlink:href="#DejaVuSans-14" transform="translate(159.03125 0)"/>
      </g>
     </g>
    </g>
    <g id="ytick_3">
     <g id="line2d_8">
      <path d="M 46.436959 233.499589
L 292.421635 233.499589
" clip-path="url(#pc38571ec99)" style="fill: none; stroke: #b0b0b0; stroke-opacity: 0.2; stroke-width: 0.8; stroke-linecap: square"/>
     </g>
     <g id="line2d_9">
      <g>
       <use xlink:href="#m1915d4e273" x="46.436959" y="233.499589" style="stroke: #000000; stroke-width: 0.8"/>
      </g>
     </g>
     <g id="text_6">
      <!-- 0.02 -->
      <g transform="translate(17.171334 237.298418) scale(0.1 -0.1)">
       <defs>
        <path id="DejaVuSans-15" d="M 1228 531
L 3431 531
L 3431 0
L 469 0
L 469 531
Q 828 903 1448 1529
Q 2069 2156 2228 2338
Q 2531 2678 2651 2914
Q 2772 3150 2772 3378
Q 2772 3750 2511 3984
Q 2250 4219 1831 4219
Q 1534 4219 1204 4116
Q 875 4013 500 3803
L 500 4441
Q 881 4594 1212 4672
Q 1544 4750 1819 4750
Q 2544 4750 2975 4387
Q 3406 4025 3406 3419
Q 3406 3131 3298 2873
Q 3191 2616 2906 2266
Q 2828 2175 2409 1742
Q 1991 1309 1228 531
z
" transform="scale(0.015625)"/>
       </defs>
       <use xlink:href="#DejaVuSans-13"/>
       <use xlink:href="#DejaVuSans-11" transform="translate(63.625 0)"/>
       <use xlink:href="#DejaVuSans-13" transform="translate(95.40625 0)"/>
       <use xlink:href="#DejaVuSans-15" transform="translate(159.03125 0)"/>
      </g>
     </g>
    </g>
    <g id="ytick_4">
     <g id="line2d_10">
      <path d="M 46.436959 200.034666
L 292.421635 200.034666
" clip-path="url(#pc38571ec99)" style="fill: none; stroke: #b0b0b0; stroke-opacity: 0.2; stroke-width: 0.8; stroke-linecap: square"/>
     </g>
     <g id="line2d_11">
      <g>
       <use xlink:href="#m1915d4e273" x="46.436959" y="200.034666" style="stroke: #000000; stroke-width: 0.8"/>
      </g>
     </g>
     <g id="text_7">
      <!-- 0.03 -->
      <g transform="translate(17.171334 203.833494) scale(0.1 -0.1)">
       <defs>
        <path id="DejaVuSans-16" d="M 2597 2516
Q 3050 2419 3304 2112
Q 3559 1806 3559 1356
Q 3559 666 3084 287
Q 2609 -91 1734 -91
Q 1441 -91 1130 -33
Q 819 25 488 141
L 488 750
Q 750 597 1062 519
Q 1375 441 1716 441
Q 2309 441 2620 675
Q 2931 909 2931 1356
Q 2931 1769 2642 2001
Q 2353 2234 1838 2234
L 1294 2234
L 1294 2753
L 1863 2753
Q 2328 2753 2575 2939
Q 2822 3125 2822 3475
Q 2822 3834 2567 4026
Q 2313 4219 1838 4219
Q 1578 4219 1281 4162
Q 984 4106 628 3988
L 628 4550
Q 988 4650 1302 4700
Q 1616 4750 1894 4750
Q 2613 4750 3031 4423
Q 3450 4097 3450 3541
Q 3450 3153 3228 2886
Q 3006 2619 2597 2516
z
" transform="scale(0.015625)"/>
       </defs>
       <use xlink:href="#DejaVuSans-13"/>
       <use xlink:href="#DejaVuSans-11" transform="translate(63.625 0)"/>
       <use xlink:href="#DejaVuSans-13" transform="translate(95.40625 0)"/>
       <use xlink:href="#DejaVuSans-16" transform="translate(159.03125 0)"/>
      </g>
     </g>
    </g>
    <g id="ytick_5">
     <g id="line2d_12">
      <path d="M 46.436959 166.569743
L 292.421635 166.569743
" clip-path="url(#pc38571ec99)" style="fill: none; stroke: #b0b0b0; stroke-opacity: 0.2; stroke-width: 0.8; stroke-linecap: square"/>
     </g>
     <g id="line2d_13">
      <g>
       <use xlink:href="#m1915d4e273" x="46.436959" y="166.569743" style="stroke: #000000; stroke-width: 0.8"/>
      </g>
     </g>
     <g id="text_8">
      <!-- 0.04 -->
      <g transform="translate(17.171334 170.368571) scale(0.1 -0.1)">
       <defs>
        <path id="DejaVuSans-17" d="M 2419 4116
L 825 1625
L 2419 1625
L 2419 4116
z
M 2253 4666
L 3047 4666
L 3047 1625
L 3713 1625
L 3713 1100
L 3047 1100
L 3047 0
L 2419 0
L 2419 1100
L 313 1100
L 313 1709
L 2253 4666
z
" transform="scale(0.015625)"/>
       </defs>
       <use xlink:href="#DejaVuSans-13"/>
       <use xlink:href="#DejaVuSans-11" transform="translate(63.625 0)"/>
       <use xlink:href="#DejaVuSans-13" transform="translate(95.40625 0)"/>
       <use xlink:href="#DejaVuSans-17" transform="translate(159.03125 0)"/>
      </g>
     </g>
    </g>
    <g id="ytick_6">
     <g id="line2d_14">
      <path d="M 46.436959 133.104819
L 292.421635 133.104819
" clip-path="url(#pc38571ec99)" style="fill: none; stroke: #b0b0b0; stroke-opacity: 0.2; stroke-width: 0.8; stroke-linecap: square"/>
     </g>
     <g id="line2d_15">
      <g>
       <use xlink:href="#m1915d4e273" x="46.436959" y="133.104819" style="stroke: #000000; stroke-width: 0.8"/>
      </g>
     </g>
     <g id="text_9">
      <!-- 0.05 -->
      <g transform="translate(17.171334 136.903647) scale(0.1 -0.1)">
       <defs>
        <path id="DejaVuSans-18" d="M 691 4666
L 3169 4666
L 3169 4134
L 1269 4134
L 1269 2991
Q 1406 3038 1543 3061
Q 1681 3084 1819 3084
Q 2600 3084 3056 2656
Q 3513 2228 3513 1497
Q 3513 744 3044 326
Q 2575 -91 1722 -91
Q 1428 -91 1123 -41
Q 819 9 494 109
L 494 744
Q 775 591 1075 516
Q 1375 441 1709 441
Q 2250 441 2565 725
Q 2881 1009 2881 1497
Q 2881 1984 2565 2268
Q 2250 2553 1709 2553
Q 1456 2553 1204 2497
Q 953 2441 691 2322
L 691 4666
z
" transform="scale(0.015625)"/>
       </defs>
       <use xlink:href="#DejaVuSans-13"/>
       <use xlink:href="#DejaVuSans-11" transform="translate(63.625 0)"/>
       <use xlink:href="#DejaVuSans-13" transform="translate(95.40625 0)"/>
       <use xlink:href="#DejaVuSans-18" transform="translate(159.03125 0)"/>
      </g>
     </g>
    </g>
    <g id="ytick_7">
     <g id="line2d_16">
      <path d="M 46.436959 99.639896
L 292.421635 99.639896
" clip-path="url(#pc38571ec99)" style="fill: none; stroke: #b0b0b0; stroke-opacity: 0.2; stroke-width: 0.8; stroke-linecap: square"/>
     </g>
     <g id="line2d_17">
      <g>
       <use xlink:href="#m1915d4e273" x="46.436959" y="99.639896" style="stroke: #000000; stroke-width: 0.8"/>
      </g>
     </g>
     <g id="text_10">
      <!-- 0.06 -->
      <g transform="translate(17.171334 103.438724) scale(0.1 -0.1)">
       <defs>
        <path id="DejaVuSans-19" d="M 2113 2584
Q 1688 2584 1439 2293
Q 1191 2003 1191 1497
Q 1191 994 1439 701
Q 1688 409 2113 409
Q 2538 409 2786 701
Q 3034 994 3034 1497
Q 3034 2003 2786 2293
Q 2538 2584 2113 2584
z
M 3366 4563
L 3366 3988
Q 3128 4100 2886 4159
Q 2644 4219 2406 4219
Q 1781 4219 1451 3797
Q 1122 3375 1075 2522
Q 1259 2794 1537 2939
Q 1816 3084 2150 3084
Q 2853 3084 3261 2657
Q 3669 2231 3669 1497
Q 3669 778 3244 343
Q 2819 -91 2113 -91
Q 1303 -91 875 529
Q 447 1150 447 2328
Q 447 3434 972 4092
Q 1497 4750 2381 4750
Q 2619 4750 2861 4703
Q 3103 4656 3366 4563
z
" transform="scale(0.015625)"/>
       </defs>
       <use xlink:href="#DejaVuSans-13"/>
       <use xlink:href="#DejaVuSans-11" transform="translate(63.625 0)"/>
       <use xlink:href="#DejaVuSans-13" transform="translate(95.40625 0)"/>
       <use xlink:href="#DejaVuSans-19" transform="translate(159.03125 0)"/>
      </g>
     </g>
    </g>
    <g id="ytick_8">
     <g id="line2d_18">
      <path d="M 46.436959 66.174973
L 292.421635 66.174973
" clip-path="url(#pc38571ec99)" style="fill: none; stroke: #b0b0b0; stroke-opacity: 0.2; stroke-width: 0.8; stroke-linecap: square"/>
     </g>
     <g id="line2d_19">
      <g>
       <use xlink:href="#m1915d4e273" x="46.436959" y="66.174973" style="stroke: #000000; stroke-width: 0.8"/>
      </g>
     </g>
     <g id="text_11">
      <!-- 0.07 -->
      <g transform="translate(17.171334 69.973801) scale(0.1 -0.1)">
       <defs>
        <path id="DejaVuSans-1a" d="M 525 4666
L 3525 4666
L 3525 4397
L 1831 0
L 1172 0
L 2766 4134
L 525 4134
L 525 4666
z
" transform="scale(0.015625)"/>
       </defs>
       <use xlink:href="#DejaVuSans-13"/>
       <use xlink:href="#DejaVuSans-11" transform="translate(63.625 0)"/>
       <use xlink:href="#DejaVuSans-13" transform="translate(95.40625 0)"/>
       <use xlink:href="#DejaVuSans-1a" transform="translate(159.03125 0)"/>
      </g>
     </g>
    </g>
    <g id="text_12">
     <!-- Tamaño de archivos (MiB) -->
     <g transform="translate(10.76899 242.32332) rotate(-90) scale(0.1 -0.1)">
      <defs>
       <path id="DejaVuSans-37" d="M -19 4666
L 3928 4666
L 3928 4134
L 2272 4134
L 2272 0
L 1638 0
L 1638 4134
L -19 4134
L -19 4666
z
" transform="scale(0.015625)"/>
       <path id="DejaVuSans-50" d="M 3328 2828
Q 3544 3216 3844 3400
Q 4144 3584 4550 3584
Q 5097 3584 5394 3201
Q 5691 2819 5691 2113
L 5691 0
L 5113 0
L 5113 2094
Q 5113 2597 4934 2840
Q 4756 3084 4391 3084
Q 3944 3084 3684 2787
Q 3425 2491 3425 1978
L 3425 0
L 2847 0
L 2847 2094
Q 2847 2600 2669 2842
Q 2491 3084 2119 3084
Q 1678 3084 1418 2786
Q 1159 2488 1159 1978
L 1159 0
L 581 0
L 581 3500
L 1159 3500
L 1159 2956
Q 1356 3278 1631 3431
Q 1906 3584 2284 3584
Q 2666 3584 2933 3390
Q 3200 3197 3328 2828
z
" transform="scale(0.015625)"/>
       <path id="DejaVuSans-b3" d="M 3513 2113
L 3513 0
L 2938 0
L 2938 2094
Q 2938 2591 2744 2837
Q 2550 3084 2163 3084
Q 1697 3084 1428 2787
Q 1159 2491 1159 1978
L 1159 0
L 581 0
L 581 3500
L 1159 3500
L 1159 2956
Q 1366 3272 1645 3428
Q 1925 3584 2291 3584
Q 2894 3584 3203 3211
Q 3513 2838 3513 2113
z
M 2063 4281
L 1884 4453
Q 1816 4516 1764 4545
Q 1713 4575 1672 4575
Q 1553 4575 1497 4461
Q 1441 4347 1434 4091
L 1044 4091
Q 1050 4513 1209 4742
Q 1369 4972 1653 4972
Q 1772 4972 1872 4928
Q 1972 4884 2088 4781
L 2266 4609
Q 2334 4547 2386 4517
Q 2438 4488 2478 4488
Q 2597 4488 2653 4602
Q 2709 4716 2716 4972
L 3106 4972
Q 3100 4550 2940 4320
Q 2781 4091 2497 4091
Q 2378 4091 2278 4134
Q 2178 4178 2063 4281
z
" transform="scale(0.015625)"/>
       <path id="DejaVuSans-46" d="M 3122 3366
L 3122 2828
Q 2878 2963 2633 3030
Q 2388 3097 2138 3097
Q 1578 3097 1268 2742
Q 959 2388 959 1747
Q 959 1106 1268 751
Q 1578 397 2138 397
Q 2388 397 2633 464
Q 2878 531 3122 666
L 3122 134
Q 2881 22 2623 -34
Q 2366 -91 2075 -91
Q 1284 -91 818 406
Q 353 903 353 1747
Q 353 2603 823 3093
Q 1294 3584 2113 3584
Q 2378 3584 2631 3529
Q 2884 3475 3122 3366
z
" transform="scale(0.015625)"/>
       <path id="DejaVuSans-59" d="M 191 3500
L 800 3500
L 1894 563
L 2988 3500
L 3597 3500
L 2284 0
L 1503 0
L 191 3500
z
" transform="scale(0.015625)"/>
       <path id="DejaVuSans-b" d="M 1984 4856
Q 1566 4138 1362 3434
Q 1159 2731 1159 2009
Q 1159 1288 1364 580
Q 1569 -128 1984 -844
L 1484 -844
Q 1016 -109 783 600
Q 550 1309 550 2009
Q 550 2706 781 3412
Q 1013 4119 1484 4856
L 1984 4856
z
" transform="scale(0.015625)"/>
       <path id="DejaVuSans-30" d="M 628 4666
L 1569 4666
L 2759 1491
L 3956 4666
L 4897 4666
L 4897 0
L 4281 0
L 4281 4097
L 3078 897
L 2444 897
L 1241 4097
L 1241 0
L 628 0
L 628 4666
z
" transform="scale(0.015625)"/>
       <path id="DejaVuSans-c" d="M 513 4856
L 1013 4856
Q 1481 4119 1714 3412
Q 1947 2706 1947 2009
Q 1947 1309 1714 600
Q 1481 -109 1013 -844
L 513 -844
Q 928 -128 1133 580
Q 1338 1288 1338 2009
Q 1338 2731 1133 3434
Q 928 4138 513 4856
z
" transform="scale(0.015625)"/>
      </defs>
      <use xlink:href="#DejaVuSans-37"/>
      <use xlink:href="#DejaVuSans-44" transform="translate(44.53125 0)"/>
      <use xlink:href="#DejaVuSans-50" transform="translate(105.8125 0)"/>
      <use xlink:href="#DejaVuSans-44" transform="translate(203.21875 0)"/>
      <use xlink:href="#DejaVuSans-b3" transform="translate(264.5 0)"/>
      <use xlink:href="#DejaVuSans-52" transform="translate(327.875 0)"/>
      <use xlink:href="#DejaVuSans-3" transform="translate(389.0625 0)"/>
      <use xlink:href="#DejaVuSans-47" transform="translate(420.84375 0)"/>
      <use xlink:href="#DejaVuSans-48" transform="translate(484.328125 0)"/>
      <use xlink:href="#DejaVuSans-3" transform="translate(545.859375 0)"/>
      <use xlink:href="#DejaVuSans-44" transform="translate(577.640625 0)"/>
      <use xlink:href="#DejaVuSans-55" transform="translate(638.921875 0)"/>
      <use xlink:href="#DejaVuSans-46" transform="translate(677.828125 0)"/>
      <use xlink:href="#DejaVuSans-4b" transform="translate(732.8125 0)"/>
      <use xlink:href="#DejaVuSans-4c" transform="translate(796.1875 0)"/>
      <use xlink:href="#DejaVuSans-59" transform="translate(823.96875 0)"/>
      <use xlink:href="#DejaVuSans-52" transform="translate(883.15625 0)"/>
      <use xlink:href="#DejaVuSans-56" transform="translate(944.34375 0)"/>
      <use xlink:href="#DejaVuSans-3" transform="translate(996.4375 0)"/>
      <use xlink:href="#DejaVuSans-b" transform="translate(1028.21875 0)"/>
      <use xlink:href="#DejaVuSans-30" transform="translate(1067.234375 0)"/>
      <use xlink:href="#DejaVuSans-4c" transform="translate(1153.515625 0)"/>
      <use xlink:href="#DejaVuSans-25" transform="translate(1181.296875 0)"/>
      <use xlink:href="#DejaVuSans-c" transform="translate(1249.90625 0)"/>
     </g>
    </g>
   </g>
   <g id="patch_3">
    <path d="M 57.61808 300.429436
L 109.223257 300.429436
L 109.223257 104.345901
L 57.61808 104.345901
z
" clip-path="url(#pc38571ec99)" style="fill: #0072b2"/>
   </g>
   <g id="patch_4">
    <path d="M 57.61808 104.345901
L 109.223257 104.345901
L 109.223257 104.345901
L 57.61808 104.345901
z
" clip-path="url(#pc38571ec99)" style="fill: url(#h378b65381a); stroke: #000000; stroke-width: 0.4; stroke-linejoin: miter"/>
   </g>
   <g id="patch_5">
    <path d="M 143.626708 300.429436
L 195.231885 300.429436
L 195.231885 182.779315
L 143.626708 182.779315
z
" clip-path="url(#pc38571ec99)" style="fill: #d55e00"/>
   </g>
   <g id="patch_6">
    <path d="M 143.626708 182.779315
L 195.231885 182.779315
L 195.231885 104.345901
L 143.626708 104.345901
z
" clip-path="url(#pc38571ec99)" style="fill: url(#h0713d1e354); stroke: #000000; stroke-width: 0.4; stroke-linejoin: miter"/>
   </g>
   <g id="patch_7">
    <path d="M 229.635337 300.429436
L 281.240513 300.429436
L 281.240513 182.779315
L 229.635337 182.779315
z
" clip-path="url(#pc38571ec99)" style="fill: #009e73"/>
   </g>
   <g id="patch_8">
    <path d="M 229.635337 182.779315
L 281.240513 182.779315
L 281.240513 104.345901
L 229.635337 104.345901
z
" clip-path="url(#pc38571ec99)" style="fill: url(#h692345816e); stroke: #000000; stroke-width: 0.4; stroke-linejoin: miter"/>
   </g>
   <g id="patch_9">
    <path d="M 46.436959 300.429436
L 46.436959 55.325017
" style="fill: none; stroke: #000000; stroke-width: 0.8; stroke-linejoin: miter; stroke-linecap: square"/>
   </g>
   <g id="patch_10">
    <path d="M 292.421635 300.429436
L 292.421635 55.325017
" style="fill: none; stroke: #000000; stroke-width: 0.8; stroke-linejoin: miter; stroke-linecap: square"/>
   </g>
   <g id="patch_11">
    <path d="M 46.436959 300.429436
L 292.421635 300.429436
" style="fill: none; stroke: #000000; stroke-width: 0.8; stroke-linejoin: miter; stroke-linecap: square"/>
   </g>
   <g id="patch_12">
    <path d="M 46.436959 55.325017
L 292.421635 55.325017
" style="fill: none; stroke: #000000; stroke-width: 0.8; stroke-linejoin: miter; stroke-linecap: square"/>
   </g>
   <g id="text_13">
    <!-- N = 1 000 -->
    <g transform="translate(138.922109 49.325017) scale(0.12 -0.12)">
     <defs>
      <path id="DejaVuSans-31" d="M 628 4666
L 1478 4666
L 3547 763
L 3547 4666
L 4159 4666
L 4159 0
L 3309 0
L 1241 3903
L 1241 0
L 628 0
L 628 4666
z
" transform="scale(0.015625)"/>
      <path id="DejaVuSans-20" d="M 678 2906
L 4684 2906
L 4684 2381
L 678 2381
L 678 2906
z
M 678 1631
L 4684 1631
L 4684 1100
L 678 1100
L 678 1631
z
" transform="scale(0.015625)"/>
     </defs>
     <use xlink:href="#DejaVuSans-31"/>
     <use xlink:href="#DejaVuSans-3" transform="translate(74.8125 0)"/>
     <use xlink:href="#DejaVuSans-20" transform="translate(106.59375 0)"/>
     <use xlink:href="#DejaVuSans-3" transform="translate(190.390625 0)"/>
     <use xlink:href="#DejaVuSans-14" transform="translate(222.171875 0)"/>
     <use xlink:href="#DejaVuSans-3" transform="translate(285.796875 0)"/>
     <use xlink:href="#DejaVuSans-13" transform="translate(317.578125 0)"/>
     <use xlink:href="#DejaVuSans-13" transform="translate(381.203125 0)"/>
     <use xlink:href="#DejaVuSans-13" transform="translate(444.828125 0)"/>
    </g>
   </g>
  </g>
  <g id="axes_2">
   <g id="patch_13">
    <path d="M 335.496334 300.429436
L 581.48101 300.429436
L 581.48101 55.325017
L 335.496334 55.325017
z
" style="fill: #ffffff"/>
   </g>
   <g id="matplotlib.axis_3">
    <g id="xtick_4">
     <g id="line2d_20">
      <g>
       <use xlink:href="#m3d4b9ce84c" x="372.480044" y="300.429436" style="stroke: #000000; stroke-width: 0.8"/>
      </g>
     </g>
     <g id="text_14">
      <!-- B+ -->
      <g transform="translate(365.621763 315.168206) scale(0.09 -0.09)">
       <use xlink:href="#DejaVuSans-25"/>
       <use xlink:href="#DejaVuSans-e" transform="translate(68.609375 0)"/>
      </g>
      <!-- agrupado -->
      <g transform="translate(350.939106 325.970667) scale(0.09 -0.09)">
       <use xlink:href="#DejaVuSans-44"/>
       <use xlink:href="#DejaVuSans-4a" transform="translate(61.28125 0)"/>
       <use xlink:href="#DejaVuSans-55" transform="translate(124.765625 0)"/>
       <use xlink:href="#DejaVuSans-58" transform="translate(165.875 0)"/>
       <use xlink:href="#DejaVuSans-53" transform="translate(229.25 0)"/>
       <use xlink:href="#DejaVuSans-44" transform="translate(292.734375 0)"/>
       <use xlink:href="#DejaVuSans-47" transform="translate(354.015625 0)"/>
       <use xlink:href="#DejaVuSans-52" transform="translate(417.5 0)"/>
      </g>
     </g>
    </g>
    <g id="xtick_5">
     <g id="line2d_21">
      <g>
       <use xlink:href="#m3d4b9ce84c" x="458.488672" y="300.429436" style="stroke: #000000; stroke-width: 0.8"/>
      </g>
     </g>
     <g id="text_15">
      <!-- B+ -->
      <g transform="translate(451.630391 315.168206) scale(0.09 -0.09)">
       <use xlink:href="#DejaVuSans-25"/>
       <use xlink:href="#DejaVuSans-e" transform="translate(68.609375 0)"/>
      </g>
      <!-- no agrupado -->
      <g transform="translate(429.912266 325.970667) scale(0.09 -0.09)">
       <use xlink:href="#DejaVuSans-51"/>
       <use xlink:href="#DejaVuSans-52" transform="translate(63.375 0)"/>
       <use xlink:href="#DejaVuSans-3" transform="translate(124.5625 0)"/>
       <use xlink:href="#DejaVuSans-44" transform="translate(156.34375 0)"/>
       <use xlink:href="#DejaVuSans-4a" transform="translate(217.625 0)"/>
       <use xlink:href="#DejaVuSans-55" transform="translate(281.109375 0)"/>
       <use xlink:href="#DejaVuSans-58" transform="translate(322.21875 0)"/>
       <use xlink:href="#DejaVuSans-53" transform="translate(385.59375 0)"/>
       <use xlink:href="#DejaVuSans-44" transform="translate(449.078125 0)"/>
       <use xlink:href="#DejaVuSans-47" transform="translate(510.359375 0)"/>
       <use xlink:href="#DejaVuSans-52" transform="translate(573.84375 0)"/>
      </g>
     </g>
    </g>
    <g id="xtick_6">
     <g id="line2d_22">
      <g>
       <use xlink:href="#m3d4b9ce84c" x="544.4973" y="300.429436" style="stroke: #000000; stroke-width: 0.8"/>
      </g>
     </g>
     <g id="text_16">
      <!-- Hash -->
      <g transform="translate(533.159409 315.168909) scale(0.09 -0.09)">
       <use xlink:href="#DejaVuSans-2b"/>
       <use xlink:href="#DejaVuSans-44" transform="translate(75.203125 0)"/>
       <use xlink:href="#DejaVuSans-56" transform="translate(136.484375 0)"/>
       <use xlink:href="#DejaVuSans-4b" transform="translate(188.578125 0)"/>
      </g>
      <!-- extensible -->
      <g transform="translate(521.28855 325.97137) scale(0.09 -0.09)">
       <use xlink:href="#DejaVuSans-48"/>
       <use xlink:href="#DejaVuSans-5b" transform="translate(59.78125 0)"/>
       <use xlink:href="#DejaVuSans-57" transform="translate(118.96875 0)"/>
       <use xlink:href="#DejaVuSans-48" transform="translate(158.171875 0)"/>
       <use xlink:href="#DejaVuSans-51" transform="translate(219.703125 0)"/>
       <use xlink:href="#DejaVuSans-56" transform="translate(283.078125 0)"/>
       <use xlink:href="#DejaVuSans-4c" transform="translate(335.171875 0)"/>
       <use xlink:href="#DejaVuSans-45" transform="translate(362.953125 0)"/>
       <use xlink:href="#DejaVuSans-4f" transform="translate(426.4375 0)"/>
       <use xlink:href="#DejaVuSans-48" transform="translate(454.21875 0)"/>
      </g>
     </g>
    </g>
   </g>
   <g id="matplotlib.axis_4">
    <g id="ytick_9">
     <g id="line2d_23">
      <path d="M 335.496334 300.429436
L 581.48101 300.429436
" clip-path="url(#pc2be419464)" style="fill: none; stroke: #b0b0b0; stroke-opacity: 0.2; stroke-width: 0.8; stroke-linecap: square"/>
     </g>
     <g id="line2d_24">
      <g>
       <use xlink:href="#m1915d4e273" x="335.496334" y="300.429436" style="stroke: #000000; stroke-width: 0.8"/>
      </g>
     </g>
     <g id="text_17">
      <!-- 0.0 -->
      <g transform="translate(312.593209 304.228264) scale(0.1 -0.1)">
       <use xlink:href="#DejaVuSans-13"/>
       <use xlink:href="#DejaVuSans-11" transform="translate(63.625 0)"/>
       <use xlink:href="#DejaVuSans-13" transform="translate(95.40625 0)"/>
      </g>
     </g>
    </g>
    <g id="ytick_10">
     <g id="line2d_25">
      <path d="M 335.496334 256.006972
L 581.48101 256.006972
" clip-path="url(#pc2be419464)" style="fill: none; stroke: #b0b0b0; stroke-opacity: 0.2; stroke-width: 0.8; stroke-linecap: square"/>
     </g>
     <g id="line2d_26">
      <g>
       <use xlink:href="#m1915d4e273" x="335.496334" y="256.006972" style="stroke: #000000; stroke-width: 0.8"/>
      </g>
     </g>
     <g id="text_18">
      <!-- 0.1 -->
      <g transform="translate(312.593209 259.8058) scale(0.1 -0.1)">
       <use xlink:href="#DejaVuSans-13"/>
       <use xlink:href="#DejaVuSans-11" transform="translate(63.625 0)"/>
       <use xlink:href="#DejaVuSans-14" transform="translate(95.40625 0)"/>
      </g>
     </g>
    </g>
    <g id="ytick_11">
     <g id="line2d_27">
      <path d="M 335.496334 211.584507
L 581.48101 211.584507
" clip-path="url(#pc2be419464)" style="fill: none; stroke: #b0b0b0; stroke-opacity: 0.2; stroke-width: 0.8; stroke-linecap: square"/>
     </g>
     <g id="line2d_28">
      <g>
       <use xlink:href="#m1915d4e273" x="335.496334" y="211.584507" style="stroke: #000000; stroke-width: 0.8"/>
      </g>
     </g>
     <g id="text_19">
      <!-- 0.2 -->
      <g transform="translate(312.593209 215.383335) scale(0.1 -0.1)">
       <use xlink:href="#DejaVuSans-13"/>
       <use xlink:href="#DejaVuSans-11" transform="translate(63.625 0)"/>
       <use xlink:href="#DejaVuSans-15" transform="translate(95.40625 0)"/>
      </g>
     </g>
    </g>
    <g id="ytick_12">
     <g id="line2d_29">
      <path d="M 335.496334 167.162042
L 581.48101 167.162042
" clip-path="url(#pc2be419464)" style="fill: none; stroke: #b0b0b0; stroke-opacity: 0.2; stroke-width: 0.8; stroke-linecap: square"/>
     </g>
     <g id="line2d_30">
      <g>
       <use xlink:href="#m1915d4e273" x="335.496334" y="167.162042" style="stroke: #000000; stroke-width: 0.8"/>
      </g>
     </g>
     <g id="text_20">
      <!-- 0.3 -->
      <g transform="translate(312.593209 170.96087) scale(0.1 -0.1)">
       <use xlink:href="#DejaVuSans-13"/>
       <use xlink:href="#DejaVuSans-11" transform="translate(63.625 0)"/>
       <use xlink:href="#DejaVuSans-16" transform="translate(95.40625 0)"/>
      </g>
     </g>
    </g>
    <g id="ytick_13">
     <g id="line2d_31">
      <path d="M 335.496334 122.739578
L 581.48101 122.739578
" clip-path="url(#pc2be419464)" style="fill: none; stroke: #b0b0b0; stroke-opacity: 0.2; stroke-width: 0.8; stroke-linecap: square"/>
     </g>
     <g id="line2d_32">
      <g>
       <use xlink:href="#m1915d4e273" x="335.496334" y="122.739578" style="stroke: #000000; stroke-width: 0.8"/>
      </g>
     </g>
     <g id="text_21">
      <!-- 0.4 -->
      <g transform="translate(312.593209 126.538406) scale(0.1 -0.1)">
       <use xlink:href="#DejaVuSans-13"/>
       <use xlink:href="#DejaVuSans-11" transform="translate(63.625 0)"/>
       <use xlink:href="#DejaVuSans-17" transform="translate(95.40625 0)"/>
      </g>
     </g>
    </g>
    <g id="ytick_14">
     <g id="line2d_33">
      <path d="M 335.496334 78.317113
L 581.48101 78.317113
" clip-path="url(#pc2be419464)" style="fill: none; stroke: #b0b0b0; stroke-opacity: 0.2; stroke-width: 0.8; stroke-linecap: square"/>
     </g>
     <g id="line2d_34">
      <g>
       <use xlink:href="#m1915d4e273" x="335.496334" y="78.317113" style="stroke: #000000; stroke-width: 0.8"/>
      </g>
     </g>
     <g id="text_22">
      <!-- 0.5 -->
      <g transform="translate(312.593209 82.115941) scale(0.1 -0.1)">
       <use xlink:href="#DejaVuSans-13"/>
       <use xlink:href="#DejaVuSans-11" transform="translate(63.625 0)"/>
       <use xlink:href="#DejaVuSans-18" transform="translate(95.40625 0)"/>
      </g>
     </g>
    </g>
    <g id="text_23">
     <!-- Tamaño de archivos (MiB) -->
     <g transform="translate(306.190865 242.32332) rotate(-90) scale(0.1 -0.1)">
      <use xlink:href="#DejaVuSans-37"/>
      <use xlink:href="#DejaVuSans-44" transform="translate(44.53125 0)"/>
      <use xlink:href="#DejaVuSans-50" transform="translate(105.8125 0)"/>
      <use xlink:href="#DejaVuSans-44" transform="translate(203.21875 0)"/>
      <use xlink:href="#DejaVuSans-b3" transform="translate(264.5 0)"/>
      <use xlink:href="#DejaVuSans-52" transform="translate(327.875 0)"/>
      <use xlink:href="#DejaVuSans-3" transform="translate(389.0625 0)"/>
      <use xlink:href="#DejaVuSans-47" transform="translate(420.84375 0)"/>
      <use xlink:href="#DejaVuSans-48" transform="translate(484.328125 0)"/>
      <use xlink:href="#DejaVuSans-3" transform="translate(545.859375 0)"/>
      <use xlink:href="#DejaVuSans-44" transform="translate(577.640625 0)"/>
      <use xlink:href="#DejaVuSans-55" transform="translate(638.921875 0)"/>
      <use xlink:href="#DejaVuSans-46" transform="translate(677.828125 0)"/>
      <use xlink:href="#DejaVuSans-4b" transform="translate(732.8125 0)"/>
      <use xlink:href="#DejaVuSans-4c" transform="translate(796.1875 0)"/>
      <use xlink:href="#DejaVuSans-59" transform="translate(823.96875 0)"/>
      <use xlink:href="#DejaVuSans-52" transform="translate(883.15625 0)"/>
      <use xlink:href="#DejaVuSans-56" transform="translate(944.34375 0)"/>
      <use xlink:href="#DejaVuSans-3" transform="translate(996.4375 0)"/>
      <use xlink:href="#DejaVuSans-b" transform="translate(1028.21875 0)"/>
      <use xlink:href="#DejaVuSans-30" transform="translate(1067.234375 0)"/>
      <use xlink:href="#DejaVuSans-4c" transform="translate(1153.515625 0)"/>
      <use xlink:href="#DejaVuSans-25" transform="translate(1181.296875 0)"/>
      <use xlink:href="#DejaVuSans-c" transform="translate(1249.90625 0)"/>
     </g>
    </g>
   </g>
   <g id="patch_14">
    <path d="M 346.677455 300.429436
L 398.282632 300.429436
L 398.282632 104.345901
L 346.677455 104.345901
z
" clip-path="url(#pc2be419464)" style="fill: #0072b2"/>
   </g>
   <g id="patch_15">
    <path d="M 346.677455 104.345901
L 398.282632 104.345901
L 398.282632 104.345901
L 346.677455 104.345901
z
" clip-path="url(#pc2be419464)" style="fill: url(#h378b65381a); stroke: #000000; stroke-width: 0.4; stroke-linejoin: miter"/>
   </g>
   <g id="patch_16">
    <path d="M 432.686083 300.429436
L 484.29126 300.429436
L 484.29126 173.756002
L 432.686083 173.756002
z
" clip-path="url(#pc2be419464)" style="fill: #d55e00"/>
   </g>
   <g id="patch_17">
    <path d="M 432.686083 173.756002
L 484.29126 173.756002
L 484.29126 114.757416
L 432.686083 114.757416
z
" clip-path="url(#pc2be419464)" style="fill: url(#h0713d1e354); stroke: #000000; stroke-width: 0.4; stroke-linejoin: miter"/>
   </g>
   <g id="patch_18">
    <path d="M 518.694712 300.429436
L 570.299888 300.429436
L 570.299888 173.756002
L 518.694712 173.756002
z
" clip-path="url(#pc2be419464)" style="fill: #009e73"/>
   </g>
   <g id="patch_19">
    <path d="M 518.694712 173.756002
L 570.299888 173.756002
L 570.299888 114.757416
L 518.694712 114.757416
z
" clip-path="url(#pc2be419464)" style="fill: url(#h692345816e); stroke: #000000; stroke-width: 0.4; stroke-linejoin: miter"/>
   </g>
   <g id="patch_20">
    <path d="M 335.496334 300.429436
L 335.496334 55.325017
" style="fill: none; stroke: #000000; stroke-width: 0.8; stroke-linejoin: miter; stroke-linecap: square"/>
   </g>
   <g id="patch_21">
    <path d="M 581.48101 300.429436
L 581.48101 55.325017
" style="fill: none; stroke: #000000; stroke-width: 0.8; stroke-linejoin: miter; stroke-linecap: square"/>
   </g>
   <g id="patch_22">
    <path d="M 335.496334 300.429436
L 581.48101 300.429436
" style="fill: none; stroke: #000000; stroke-width: 0.8; stroke-linejoin: miter; stroke-linecap: square"/>
   </g>
   <g id="patch_23">
    <path d="M 335.496334 55.325017
L 581.48101 55.325017
" style="fill: none; stroke: #000000; stroke-width: 0.8; stroke-linejoin: miter; stroke-linecap: square"/>
   </g>
   <g id="text_24">
    <!-- N = 10 000 -->
    <g transform="translate(424.163984 49.325017) scale(0.12 -0.12)">
     <use xlink:href="#DejaVuSans-31"/>
     <use xlink:href="#DejaVuSans-3" transform="translate(74.8125 0)"/>
     <use xlink:href="#DejaVuSans-20" transform="translate(106.59375 0)"/>
     <use xlink:href="#DejaVuSans-3" transform="translate(190.390625 0)"/>
     <use xlink:href="#DejaVuSans-14" transform="translate(222.171875 0)"/>
     <use xlink:href="#DejaVuSans-13" transform="translate(285.796875 0)"/>
     <use xlink:href="#DejaVuSans-3" transform="translate(349.421875 0)"/>
     <use xlink:href="#DejaVuSans-13" transform="translate(381.203125 0)"/>
     <use xlink:href="#DejaVuSans-13" transform="translate(444.828125 0)"/>
     <use xlink:href="#DejaVuSans-13" transform="translate(508.453125 0)"/>
    </g>
   </g>
  </g>
  <g id="axes_3">
   <g id="patch_24">
    <path d="M 615.015084 300.429436
L 860.99976 300.429436
L 860.99976 55.325017
L 615.015084 55.325017
z
" style="fill: #ffffff"/>
   </g>
   <g id="matplotlib.axis_5">
    <g id="xtick_7">
     <g id="line2d_35">
      <g>
       <use xlink:href="#m3d4b9ce84c" x="651.998794" y="300.429436" style="stroke: #000000; stroke-width: 0.8"/>
      </g>
     </g>
     <g id="text_25">
      <!-- B+ -->
      <g transform="translate(645.140513 315.168206) scale(0.09 -0.09)">
       <use xlink:href="#DejaVuSans-25"/>
       <use xlink:href="#DejaVuSans-e" transform="translate(68.609375 0)"/>
      </g>
      <!-- agrupado -->
      <g transform="translate(630.457856 325.970667) scale(0.09 -0.09)">
       <use xlink:href="#DejaVuSans-44"/>
       <use xlink:href="#DejaVuSans-4a" transform="translate(61.28125 0)"/>
       <use xlink:href="#DejaVuSans-55" transform="translate(124.765625 0)"/>
       <use xlink:href="#DejaVuSans-58" transform="translate(165.875 0)"/>
       <use xlink:href="#DejaVuSans-53" transform="translate(229.25 0)"/>
       <use xlink:href="#DejaVuSans-44" transform="translate(292.734375 0)"/>
       <use xlink:href="#DejaVuSans-47" transform="translate(354.015625 0)"/>
       <use xlink:href="#DejaVuSans-52" transform="translate(417.5 0)"/>
      </g>
     </g>
    </g>
    <g id="xtick_8">
     <g id="line2d_36">
      <g>
       <use xlink:href="#m3d4b9ce84c" x="738.007422" y="300.429436" style="stroke: #000000; stroke-width: 0.8"/>
      </g>
     </g>
     <g id="text_26">
      <!-- B+ -->
      <g transform="translate(731.149141 315.168206) scale(0.09 -0.09)">
       <use xlink:href="#DejaVuSans-25"/>
       <use xlink:href="#DejaVuSans-e" transform="translate(68.609375 0)"/>
      </g>
      <!-- no agrupado -->
      <g transform="translate(709.431016 325.970667) scale(0.09 -0.09)">
       <use xlink:href="#DejaVuSans-51"/>
       <use xlink:href="#DejaVuSans-52" transform="translate(63.375 0)"/>
       <use xlink:href="#DejaVuSans-3" transform="translate(124.5625 0)"/>
       <use xlink:href="#DejaVuSans-44" transform="translate(156.34375 0)"/>
       <use xlink:href="#DejaVuSans-4a" transform="translate(217.625 0)"/>
       <use xlink:href="#DejaVuSans-55" transform="translate(281.109375 0)"/>
       <use xlink:href="#DejaVuSans-58" transform="translate(322.21875 0)"/>
       <use xlink:href="#DejaVuSans-53" transform="translate(385.59375 0)"/>
       <use xlink:href="#DejaVuSans-44" transform="translate(449.078125 0)"/>
       <use xlink:href="#DejaVuSans-47" transform="translate(510.359375 0)"/>
       <use xlink:href="#DejaVuSans-52" transform="translate(573.84375 0)"/>
      </g>
     </g>
    </g>
    <g id="xtick_9">
     <g id="line2d_37">
      <g>
       <use xlink:href="#m3d4b9ce84c" x="824.01605" y="300.429436" style="stroke: #000000; stroke-width: 0.8"/>
      </g>
     </g>
     <g id="text_27">
      <!-- Hash -->
      <g transform="translate(812.678159 315.168909) scale(0.09 -0.09)">
       <use xlink:href="#DejaVuSans-2b"/>
       <use xlink:href="#DejaVuSans-44" transform="translate(75.203125 0)"/>
       <use xlink:href="#DejaVuSans-56" transform="translate(136.484375 0)"/>
       <use xlink:href="#DejaVuSans-4b" transform="translate(188.578125 0)"/>
      </g>
      <!-- extensible -->
      <g transform="translate(800.8073 325.97137) scale(0.09 -0.09)">
       <use xlink:href="#DejaVuSans-48"/>
       <use xlink:href="#DejaVuSans-5b" transform="translate(59.78125 0)"/>
       <use xlink:href="#DejaVuSans-57" transform="translate(118.96875 0)"/>
       <use xlink:href="#DejaVuSans-48" transform="translate(158.171875 0)"/>
       <use xlink:href="#DejaVuSans-51" transform="translate(219.703125 0)"/>
       <use xlink:href="#DejaVuSans-56" transform="translate(283.078125 0)"/>
       <use xlink:href="#DejaVuSans-4c" transform="translate(335.171875 0)"/>
       <use xlink:href="#DejaVuSans-45" transform="translate(362.953125 0)"/>
       <use xlink:href="#DejaVuSans-4f" transform="translate(426.4375 0)"/>
       <use xlink:href="#DejaVuSans-48" transform="translate(454.21875 0)"/>
      </g>
     </g>
    </g>
   </g>
   <g id="matplotlib.axis_6">
    <g id="ytick_15">
     <g id="line2d_38">
      <path d="M 615.015084 300.429436
L 860.99976 300.429436
" clip-path="url(#pcec066c22a)" style="fill: none; stroke: #b0b0b0; stroke-opacity: 0.2; stroke-width: 0.8; stroke-linecap: square"/>
     </g>
     <g id="line2d_39">
      <g>
       <use xlink:href="#m1915d4e273" x="615.015084" y="300.429436" style="stroke: #000000; stroke-width: 0.8"/>
      </g>
     </g>
     <g id="text_28">
      <!-- 0 -->
      <g transform="translate(601.652584 304.228264) scale(0.1 -0.1)">
       <use xlink:href="#DejaVuSans-13"/>
      </g>
     </g>
    </g>
    <g id="ytick_16">
     <g id="line2d_40">
      <path d="M 615.015084 256.280461
L 860.99976 256.280461
" clip-path="url(#pcec066c22a)" style="fill: none; stroke: #b0b0b0; stroke-opacity: 0.2; stroke-width: 0.8; stroke-linecap: square"/>
     </g>
     <g id="line2d_41">
      <g>
       <use xlink:href="#m1915d4e273" x="615.015084" y="256.280461" style="stroke: #000000; stroke-width: 0.8"/>
      </g>
     </g>
     <g id="text_29">
      <!-- 1 -->
      <g transform="translate(601.652584 260.079289) scale(0.1 -0.1)">
       <use xlink:href="#DejaVuSans-14"/>
      </g>
     </g>
    </g>
    <g id="ytick_17">
     <g id="line2d_42">
      <path d="M 615.015084 212.131485
L 860.99976 212.131485
" clip-path="url(#pcec066c22a)" style="fill: none; stroke: #b0b0b0; stroke-opacity: 0.2; stroke-width: 0.8; stroke-linecap: square"/>
     </g>
     <g id="line2d_43">
      <g>
       <use xlink:href="#m1915d4e273" x="615.015084" y="212.131485" style="stroke: #000000; stroke-width: 0.8"/>
      </g>
     </g>
     <g id="text_30">
      <!-- 2 -->
      <g transform="translate(601.652584 215.930313) scale(0.1 -0.1)">
       <use xlink:href="#DejaVuSans-15"/>
      </g>
     </g>
    </g>
    <g id="ytick_18">
     <g id="line2d_44">
      <path d="M 615.015084 167.98251
L 860.99976 167.98251
" clip-path="url(#pcec066c22a)" style="fill: none; stroke: #b0b0b0; stroke-opacity: 0.2; stroke-width: 0.8; stroke-linecap: square"/>
     </g>
     <g id="line2d_45">
      <g>
       <use xlink:href="#m1915d4e273" x="615.015084" y="167.98251" style="stroke: #000000; stroke-width: 0.8"/>
      </g>
     </g>
     <g id="text_31">
      <!-- 3 -->
      <g transform="translate(601.652584 171.781338) scale(0.1 -0.1)">
       <use xlink:href="#DejaVuSans-16"/>
      </g>
     </g>
    </g>
    <g id="ytick_19">
     <g id="line2d_46">
      <path d="M 615.015084 123.833534
L 860.99976 123.833534
" clip-path="url(#pcec066c22a)" style="fill: none; stroke: #b0b0b0; stroke-opacity: 0.2; stroke-width: 0.8; stroke-linecap: square"/>
     </g>
     <g id="line2d_47">
      <g>
       <use xlink:href="#m1915d4e273" x="615.015084" y="123.833534" style="stroke: #000000; stroke-width: 0.8"/>
      </g>
     </g>
     <g id="text_32">
      <!-- 4 -->
      <g transform="translate(601.652584 127.632363) scale(0.1 -0.1)">
       <use xlink:href="#DejaVuSans-17"/>
      </g>
     </g>
    </g>
    <g id="ytick_20">
     <g id="line2d_48">
      <path d="M 615.015084 79.684559
L 860.99976 79.684559
" clip-path="url(#pcec066c22a)" style="fill: none; stroke: #b0b0b0; stroke-opacity: 0.2; stroke-width: 0.8; stroke-linecap: square"/>
     </g>
     <g id="line2d_49">
      <g>
       <use xlink:href="#m1915d4e273" x="615.015084" y="79.684559" style="stroke: #000000; stroke-width: 0.8"/>
      </g>
     </g>
     <g id="text_33">
      <!-- 5 -->
      <g transform="translate(601.652584 83.483387) scale(0.1 -0.1)">
       <use xlink:href="#DejaVuSans-18"/>
      </g>
     </g>
    </g>
    <g id="text_34">
     <!-- Tamaño de archivos (MiB) -->
     <g transform="translate(595.25024 242.32332) rotate(-90) scale(0.1 -0.1)">
      <use xlink:href="#DejaVuSans-37"/>
      <use xlink:href="#DejaVuSans-44" transform="translate(44.53125 0)"/>
      <use xlink:href="#DejaVuSans-50" transform="translate(105.8125 0)"/>
      <use xlink:href="#DejaVuSans-44" transform="translate(203.21875 0)"/>
      <use xlink:href="#DejaVuSans-b3" transform="translate(264.5 0)"/>
      <use xlink:href="#DejaVuSans-52" transform="translate(327.875 0)"/>
      <use xlink:href="#DejaVuSans-3" transform="translate(389.0625 0)"/>
      <use xlink:href="#DejaVuSans-47" transform="translate(420.84375 0)"/>
      <use xlink:href="#DejaVuSans-48" transform="translate(484.328125 0)"/>
      <use xlink:href="#DejaVuSans-3" transform="translate(545.859375 0)"/>
      <use xlink:href="#DejaVuSans-44" transform="translate(577.640625 0)"/>
      <use xlink:href="#DejaVuSans-55" transform="translate(638.921875 0)"/>
      <use xlink:href="#DejaVuSans-46" transform="translate(677.828125 0)"/>
      <use xlink:href="#DejaVuSans-4b" transform="translate(732.8125 0)"/>
      <use xlink:href="#DejaVuSans-4c" transform="translate(796.1875 0)"/>
      <use xlink:href="#DejaVuSans-59" transform="translate(823.96875 0)"/>
      <use xlink:href="#DejaVuSans-52" transform="translate(883.15625 0)"/>
      <use xlink:href="#DejaVuSans-56" transform="translate(944.34375 0)"/>
      <use xlink:href="#DejaVuSans-3" transform="translate(996.4375 0)"/>
      <use xlink:href="#DejaVuSans-b" transform="translate(1028.21875 0)"/>
      <use xlink:href="#DejaVuSans-30" transform="translate(1067.234375 0)"/>
      <use xlink:href="#DejaVuSans-4c" transform="translate(1153.515625 0)"/>
      <use xlink:href="#DejaVuSans-25" transform="translate(1181.296875 0)"/>
      <use xlink:href="#DejaVuSans-c" transform="translate(1249.90625 0)"/>
     </g>
    </g>
   </g>
   <g id="patch_25">
    <path d="M 626.196205 300.429436
L 677.801382 300.429436
L 677.801382 104.345901
L 626.196205 104.345901
z
" clip-path="url(#pcec066c22a)" style="fill: #0072b2"/>
   </g>
   <g id="patch_26">
    <path d="M 626.196205 104.345901
L 677.801382 104.345901
L 677.801382 104.345901
L 626.196205 104.345901
z
" clip-path="url(#pcec066c22a)" style="fill: url(#h378b65381a); stroke: #000000; stroke-width: 0.4; stroke-linejoin: miter"/>
   </g>
   <g id="patch_27">
    <path d="M 712.204833 300.429436
L 763.81001 300.429436
L 763.81001 176.950271
L 712.204833 176.950271
z
" clip-path="url(#pcec066c22a)" style="fill: #d55e00"/>
   </g>
   <g id="patch_28">
    <path d="M 712.204833 176.950271
L 763.81001 176.950271
L 763.81001 117.625085
L 712.204833 117.625085
z
" clip-path="url(#pcec066c22a)" style="fill: url(#h0713d1e354); stroke: #000000; stroke-width: 0.4; stroke-linejoin: miter"/>
   </g>
   <g id="patch_29">
    <path d="M 798.213462 300.429436
L 849.818638 300.429436
L 849.818638 176.950271
L 798.213462 176.950271
z
" clip-path="url(#pcec066c22a)" style="fill: #009e73"/>
   </g>
   <g id="patch_30">
    <path d="M 798.213462 176.950271
L 849.818638 176.950271
L 849.818638 132.456381
L 798.213462 132.456381
z
" clip-path="url(#pcec066c22a)" style="fill: url(#h692345816e); stroke: #000000; stroke-width: 0.4; stroke-linejoin: miter"/>
   </g>
   <g id="patch_31">
    <path d="M 615.015084 300.429436
L 615.015084 55.325017
" style="fill: none; stroke: #000000; stroke-width: 0.8; stroke-linejoin: miter; stroke-linecap: square"/>
   </g>
   <g id="patch_32">
    <path d="M 860.99976 300.429436
L 860.99976 55.325017
" style="fill: none; stroke: #000000; stroke-width: 0.8; stroke-linejoin: miter; stroke-linecap: square"/>
   </g>
   <g id="patch_33">
    <path d="M 615.015084 300.429436
L 860.99976 300.429436
" style="fill: none; stroke: #000000; stroke-width: 0.8; stroke-linejoin: miter; stroke-linecap: square"/>
   </g>
   <g id="patch_34">
    <path d="M 615.015084 55.325017
L 860.99976 55.325017
" style="fill: none; stroke: #000000; stroke-width: 0.8; stroke-linejoin: miter; stroke-linecap: square"/>
   </g>
   <g id="text_35">
    <!-- N = 100 000 -->
    <g transform="translate(699.865234 49.325017) scale(0.12 -0.12)">
     <use xlink:href="#DejaVuSans-31"/>
     <use xlink:href="#DejaVuSans-3" transform="translate(74.8125 0)"/>
     <use xlink:href="#DejaVuSans-20" transform="translate(106.59375 0)"/>
     <use xlink:href="#DejaVuSans-3" transform="translate(190.390625 0)"/>
     <use xlink:href="#DejaVuSans-14" transform="translate(222.171875 0)"/>
     <use xlink:href="#DejaVuSans-13" transform="translate(285.796875 0)"/>
     <use xlink:href="#DejaVuSans-13" transform="translate(349.421875 0)"/>
     <use xlink:href="#DejaVuSans-3" transform="translate(413.046875 0)"/>
     <use xlink:href="#DejaVuSans-13" transform="translate(444.828125 0)"/>
     <use xlink:href="#DejaVuSans-13" transform="translate(508.453125 0)"/>
     <use xlink:href="#DejaVuSans-13" transform="translate(572.078125 0)"/>
    </g>
   </g>
   <g id="legend_1">
    <g id="patch_35">
     <path d="M 758.62726 87.066267
L 855.39976 87.066267
Q 856.99976 87.066267 856.99976 85.466267
L 856.99976 60.925017
Q 856.99976 59.325017 855.39976 59.325017
L 758.62726 59.325017
Q 757.02726 59.325017 757.02726 60.925017
L 757.02726 85.466267
Q 757.02726 87.066267 758.62726 87.066267
z
" style="fill: #ffffff; opacity: 0.8; stroke: #cccccc; stroke-linejoin: miter"/>
    </g>
    <g id="patch_36">
     <path d="M 760.22726 68.603767
L 776.22726 68.603767
L 776.22726 63.003767
L 760.22726 63.003767
z
" style="fill: #808080"/>
    </g>
    <g id="text_36">
     <!-- Archivo de datos* -->
     <g transform="translate(782.62726 68.603767) scale(0.08 -0.08)">
      <defs>
       <path id="DejaVuSans-24" d="M 2188 4044
L 1331 1722
L 3047 1722
L 2188 4044
z
M 1831 4666
L 2547 4666
L 4325 0
L 3669 0
L 3244 1197
L 1141 1197
L 716 0
L 50 0
L 1831 4666
z
" transform="scale(0.015625)"/>
       <path id="DejaVuSans-d" d="M 3009 3897
L 1888 3291
L 3009 2681
L 2828 2375
L 1778 3009
L 1778 1831
L 1422 1831
L 1422 3009
L 372 2375
L 191 2681
L 1313 3291
L 191 3897
L 372 4206
L 1422 3572
L 1422 4750
L 1778 4750
L 1778 3572
L 2828 4206
L 3009 3897
z
" transform="scale(0.015625)"/>
      </defs>
      <use xlink:href="#DejaVuSans-24"/>
      <use xlink:href="#DejaVuSans-55" transform="translate(68.40625 0)"/>
      <use xlink:href="#DejaVuSans-46" transform="translate(107.3125 0)"/>
      <use xlink:href="#DejaVuSans-4b" transform="translate(162.296875 0)"/>
      <use xlink:href="#DejaVuSans-4c" transform="translate(225.671875 0)"/>
      <use xlink:href="#DejaVuSans-59" transform="translate(253.453125 0)"/>
      <use xlink:href="#DejaVuSans-52" transform="translate(312.640625 0)"/>
      <use xlink:href="#DejaVuSans-3" transform="translate(373.828125 0)"/>
      <use xlink:href="#DejaVuSans-47" transform="translate(405.609375 0)"/>
      <use xlink:href="#DejaVuSans-48" transform="translate(469.09375 0)"/>
      <use xlink:href="#DejaVuSans-3" transform="translate(530.625 0)"/>
      <use xlink:href="#DejaVuSans-47" transform="translate(562.40625 0)"/>
      <use xlink:href="#DejaVuSans-44" transform="translate(625.890625 0)"/>
      <use xlink:href="#DejaVuSans-57" transform="translate(687.171875 0)"/>
      <use xlink:href="#DejaVuSans-52" transform="translate(726.375 0)"/>
      <use xlink:href="#DejaVuSans-56" transform="translate(787.5625 0)"/>
      <use xlink:href="#DejaVuSans-d" transform="translate(839.65625 0)"/>
     </g>
    </g>
    <g id="patch_37">
     <path d="M 760.22726 81.944392
L 776.22726 81.944392
L 776.22726 76.344392
L 760.22726 76.344392
z
" style="fill: url(#hfe961800ec); stroke: #000000; stroke-linejoin: miter"/>
    </g>
    <g id="text_37">
     <!-- Índice secundario -->
     <g transform="translate(782.62726 81.944392) scale(0.08 -0.08)">
      <defs>
       <path id="DejaVuSans-8f" d="M 628 4666
L 1259 4666
L 1259 0
L 628 0
L 628 4666
z
M 1119 5935
L 1697 5935
L 984 5110
L 506 5110
L 1119 5935
z
" transform="scale(0.015625)"/>
      </defs>
      <use xlink:href="#DejaVuSans-8f"/>
      <use xlink:href="#DejaVuSans-51" transform="translate(29.5 0)"/>
      <use xlink:href="#DejaVuSans-47" transform="translate(92.875 0)"/>
      <use xlink:href="#DejaVuSans-4c" transform="translate(156.359375 0)"/>
      <use xlink:href="#DejaVuSans-46" transform="translate(184.140625 0)"/>
      <use xlink:href="#DejaVuSans-48" transform="translate(239.125 0)"/>
      <use xlink:href="#DejaVuSans-3" transform="translate(300.65625 0)"/>
      <use xlink:href="#DejaVuSans-56" transform="translate(332.4375 0)"/>
      <use xlink:href="#DejaVuSans-48" transform="translate(384.53125 0)"/>
      <use xlink:href="#DejaVuSans-46" transform="translate(446.0625 0)"/>
      <use xlink:href="#DejaVuSans-58" transform="translate(501.046875 0)"/>
      <use xlink:href="#DejaVuSans-51" transform="translate(564.421875 0)"/>
      <use xlink:href="#DejaVuSans-47" transform="translate(627.796875 0)"/>
      <use xlink:href="#DejaVuSans-44" transform="translate(691.28125 0)"/>
      <use xlink:href="#DejaVuSans-55" transform="translate(752.5625 0)"/>
      <use xlink:href="#DejaVuSans-4c" transform="translate(793.671875 0)"/>
      <use xlink:href="#DejaVuSans-52" transform="translate(821.453125 0)"/>
     </g>
    </g>
   </g>
  </g>
  <g id="text_38">
   <!-- #40 · Espacio tras carga -->
   <g transform="translate(352.177969 14.179478) scale(0.13 -0.13)">
    <defs>
     <path id="DejaVuSans-6" d="M 3272 2816
L 2363 2816
L 2100 1772
L 3016 1772
L 3272 2816
z
M 2803 4594
L 2478 3297
L 3391 3297
L 3719 4594
L 4219 4594
L 3897 3297
L 4872 3297
L 4872 2816
L 3775 2816
L 3519 1772
L 4513 1772
L 4513 1294
L 3397 1294
L 3072 0
L 2572 0
L 2894 1294
L 1978 1294
L 1656 0
L 1153 0
L 1478 1294
L 494 1294
L 494 1772
L 1594 1772
L 1856 2816
L 850 2816
L 850 3297
L 1978 3297
L 2297 4594
L 2803 4594
z
" transform="scale(0.015625)"/>
     <path id="DejaVuSans-79" d="M 684 2619
L 1344 2619
L 1344 1825
L 684 1825
L 684 2619
z
" transform="scale(0.015625)"/>
     <path id="DejaVuSans-28" d="M 628 4666
L 3578 4666
L 3578 4134
L 1259 4134
L 1259 2753
L 3481 2753
L 3481 2222
L 1259 2222
L 1259 531
L 3634 531
L 3634 0
L 628 0
L 628 4666
z
" transform="scale(0.015625)"/>
    </defs>
    <use xlink:href="#DejaVuSans-6"/>
    <use xlink:href="#DejaVuSans-17" transform="translate(83.796875 0)"/>
    <use xlink:href="#DejaVuSans-13" transform="translate(147.421875 0)"/>
    <use xlink:href="#DejaVuSans-3" transform="translate(211.046875 0)"/>
    <use xlink:href="#DejaVuSans-79" transform="translate(242.828125 0)"/>
    <use xlink:href="#DejaVuSans-3" transform="translate(274.609375 0)"/>
    <use xlink:href="#DejaVuSans-28" transform="translate(306.390625 0)"/>
    <use xlink:href="#DejaVuSans-56" transform="translate(369.578125 0)"/>
    <use xlink:href="#DejaVuSans-53" transform="translate(421.671875 0)"/>
    <use xlink:href="#DejaVuSans-44" transform="translate(485.15625 0)"/>
    <use xlink:href="#DejaVuSans-46" transform="translate(546.4375 0)"/>
    <use xlink:href="#DejaVuSans-4c" transform="translate(601.421875 0)"/>
    <use xlink:href="#DejaVuSans-52" transform="translate(629.203125 0)"/>
    <use xlink:href="#DejaVuSans-3" transform="translate(690.390625 0)"/>
    <use xlink:href="#DejaVuSans-57" transform="translate(722.171875 0)"/>
    <use xlink:href="#DejaVuSans-55" transform="translate(761.375 0)"/>
    <use xlink:href="#DejaVuSans-44" transform="translate(802.484375 0)"/>
    <use xlink:href="#DejaVuSans-56" transform="translate(863.765625 0)"/>
    <use xlink:href="#DejaVuSans-3" transform="translate(915.859375 0)"/>
    <use xlink:href="#DejaVuSans-46" transform="translate(947.640625 0)"/>
    <use xlink:href="#DejaVuSans-44" transform="translate(1002.625 0)"/>
    <use xlink:href="#DejaVuSans-55" transform="translate(1063.90625 0)"/>
    <use xlink:href="#DejaVuSans-4a" transform="translate(1103.265625 0)"/>
    <use xlink:href="#DejaVuSans-44" transform="translate(1166.75 0)"/>
   </g>
   <!-- Escala vertical independiente por panel -->
   <g transform="translate(302.955703 29.783033) scale(0.13 -0.13)">
    <use xlink:href="#DejaVuSans-28"/>
    <use xlink:href="#DejaVuSans-56" transform="translate(63.1875 0)"/>
    <use xlink:href="#DejaVuSans-46" transform="translate(115.28125 0)"/>
    <use xlink:href="#DejaVuSans-44" transform="translate(170.265625 0)"/>
    <use xlink:href="#DejaVuSans-4f" transform="translate(231.546875 0)"/>
    <use xlink:href="#DejaVuSans-44" transform="translate(259.328125 0)"/>
    <use xlink:href="#DejaVuSans-3" transform="translate(320.609375 0)"/>
    <use xlink:href="#DejaVuSans-59" transform="translate(352.390625 0)"/>
    <use xlink:href="#DejaVuSans-48" transform="translate(411.578125 0)"/>
    <use xlink:href="#DejaVuSans-55" transform="translate(473.109375 0)"/>
    <use xlink:href="#DejaVuSans-57" transform="translate(514.21875 0)"/>
    <use xlink:href="#DejaVuSans-4c" transform="translate(553.421875 0)"/>
    <use xlink:href="#DejaVuSans-46" transform="translate(581.203125 0)"/>
    <use xlink:href="#DejaVuSans-44" transform="translate(636.1875 0)"/>
    <use xlink:href="#DejaVuSans-4f" transform="translate(697.46875 0)"/>
    <use xlink:href="#DejaVuSans-3" transform="translate(725.25 0)"/>
    <use xlink:href="#DejaVuSans-4c" transform="translate(757.03125 0)"/>
    <use xlink:href="#DejaVuSans-51" transform="translate(784.8125 0)"/>
    <use xlink:href="#DejaVuSans-47" transform="translate(848.1875 0)"/>
    <use xlink:href="#DejaVuSans-48" transform="translate(911.671875 0)"/>
    <use xlink:href="#DejaVuSans-53" transform="translate(973.203125 0)"/>
    <use xlink:href="#DejaVuSans-48" transform="translate(1036.6875 0)"/>
    <use xlink:href="#DejaVuSans-51" transform="translate(1098.21875 0)"/>
    <use xlink:href="#DejaVuSans-47" transform="translate(1161.59375 0)"/>
    <use xlink:href="#DejaVuSans-4c" transform="translate(1225.078125 0)"/>
    <use xlink:href="#DejaVuSans-48" transform="translate(1252.859375 0)"/>
    <use xlink:href="#DejaVuSans-51" transform="translate(1314.390625 0)"/>
    <use xlink:href="#DejaVuSans-57" transform="translate(1377.765625 0)"/>
    <use xlink:href="#DejaVuSans-48" transform="translate(1416.96875 0)"/>
    <use xlink:href="#DejaVuSans-3" transform="translate(1478.5 0)"/>
    <use xlink:href="#DejaVuSans-53" transform="translate(1510.28125 0)"/>
    <use xlink:href="#DejaVuSans-52" transform="translate(1573.765625 0)"/>
    <use xlink:href="#DejaVuSans-55" transform="translate(1634.953125 0)"/>
    <use xlink:href="#DejaVuSans-3" transform="translate(1676.0625 0)"/>
    <use xlink:href="#DejaVuSans-53" transform="translate(1707.84375 0)"/>
    <use xlink:href="#DejaVuSans-44" transform="translate(1771.328125 0)"/>
    <use xlink:href="#DejaVuSans-51" transform="translate(1832.609375 0)"/>
    <use xlink:href="#DejaVuSans-48" transform="translate(1895.984375 0)"/>
    <use xlink:href="#DejaVuSans-4f" transform="translate(1957.515625 0)"/>
   </g>
  </g>
  <g id="text_39">
   <!-- Archivos reales tras flush · 1 MiB = 1 048 576 bytes · medianas de 5 repeticiones -->
   <g transform="translate(248.496328 342.774311) scale(0.09 -0.09)">
    <defs>
     <path id="DejaVuSans-13b0" d="M 1831 4863
L 3431 4863
L 3431 0
L 2853 0
L 2853 4384
L 1825 4384
Q 1516 4384 1395 4259
Q 1275 4134 1275 3809
L 1275 3500
L 2222 3500
L 2222 3053
L 1275 3053
L 1275 0
L 697 0
L 697 3053
L 147 3053
L 147 3500
L 697 3500
L 697 3744
Q 697 4328 969 4595
Q 1241 4863 1831 4863
z
" transform="scale(0.015625)"/>
     <path id="DejaVuSans-1b" d="M 2034 2216
Q 1584 2216 1326 1975
Q 1069 1734 1069 1313
Q 1069 891 1326 650
Q 1584 409 2034 409
Q 2484 409 2743 651
Q 3003 894 3003 1313
Q 3003 1734 2745 1975
Q 2488 2216 2034 2216
z
M 1403 2484
Q 997 2584 770 2862
Q 544 3141 544 3541
Q 544 4100 942 4425
Q 1341 4750 2034 4750
Q 2731 4750 3128 4425
Q 3525 4100 3525 3541
Q 3525 3141 3298 2862
Q 3072 2584 2669 2484
Q 3125 2378 3379 2068
Q 3634 1759 3634 1313
Q 3634 634 3220 271
Q 2806 -91 2034 -91
Q 1263 -91 848 271
Q 434 634 434 1313
Q 434 1759 690 2068
Q 947 2378 1403 2484
z
M 1172 3481
Q 1172 3119 1398 2916
Q 1625 2713 2034 2713
Q 2441 2713 2670 2916
Q 2900 3119 2900 3481
Q 2900 3844 2670 4047
Q 2441 4250 2034 4250
Q 1625 4250 1398 4047
Q 1172 3844 1172 3481
z
" transform="scale(0.015625)"/>
     <path id="DejaVuSans-5c" d="M 2059 -325
Q 1816 -950 1584 -1140
Q 1353 -1331 966 -1331
L 506 -1331
L 506 -850
L 844 -850
Q 1081 -850 1212 -737
Q 1344 -625 1503 -206
L 1606 56
L 191 3500
L 800 3500
L 1894 763
L 2988 3500
L 3597 3500
L 2059 -325
z
" transform="scale(0.015625)"/>
    </defs>
    <use xlink:href="#DejaVuSans-24"/>
    <use xlink:href="#DejaVuSans-55" transform="translate(68.40625 0)"/>
    <use xlink:href="#DejaVuSans-46" transform="translate(107.3125 0)"/>
    <use xlink:href="#DejaVuSans-4b" transform="translate(162.296875 0)"/>
    <use xlink:href="#DejaVuSans-4c" transform="translate(225.671875 0)"/>
    <use xlink:href="#DejaVuSans-59" transform="translate(253.453125 0)"/>
    <use xlink:href="#DejaVuSans-52" transform="translate(312.640625 0)"/>
    <use xlink:href="#DejaVuSans-56" transform="translate(373.828125 0)"/>
    <use xlink:href="#DejaVuSans-3" transform="translate(425.921875 0)"/>
    <use xlink:href="#DejaVuSans-55" transform="translate(457.703125 0)"/>
    <use xlink:href="#DejaVuSans-48" transform="translate(496.609375 0)"/>
    <use xlink:href="#DejaVuSans-44" transform="translate(558.140625 0)"/>
    <use xlink:href="#DejaVuSans-4f" transform="translate(619.421875 0)"/>
    <use xlink:href="#DejaVuSans-48" transform="translate(647.203125 0)"/>
    <use xlink:href="#DejaVuSans-56" transform="translate(708.734375 0)"/>
    <use xlink:href="#DejaVuSans-3" transform="translate(760.828125 0)"/>
    <use xlink:href="#DejaVuSans-57" transform="translate(792.609375 0)"/>
    <use xlink:href="#DejaVuSans-55" transform="translate(831.8125 0)"/>
    <use xlink:href="#DejaVuSans-44" transform="translate(872.921875 0)"/>
    <use xlink:href="#DejaVuSans-56" transform="translate(934.203125 0)"/>
    <use xlink:href="#DejaVuSans-3" transform="translate(986.296875 0)"/>
    <use xlink:href="#DejaVuSans-13b0" transform="translate(1018.078125 0)"/>
    <use xlink:href="#DejaVuSans-58" transform="translate(1081.0625 0)"/>
    <use xlink:href="#DejaVuSans-56" transform="translate(1144.4375 0)"/>
    <use xlink:href="#DejaVuSans-4b" transform="translate(1196.53125 0)"/>
    <use xlink:href="#DejaVuSans-3" transform="translate(1259.90625 0)"/>
    <use xlink:href="#DejaVuSans-79" transform="translate(1291.6875 0)"/>
    <use xlink:href="#DejaVuSans-3" transform="translate(1323.46875 0)"/>
    <use xlink:href="#DejaVuSans-14" transform="translate(1355.25 0)"/>
    <use xlink:href="#DejaVuSans-3" transform="translate(1418.875 0)"/>
    <use xlink:href="#DejaVuSans-30" transform="translate(1450.65625 0)"/>
    <use xlink:href="#DejaVuSans-4c" transform="translate(1536.9375 0)"/>
    <use xlink:href="#DejaVuSans-25" transform="translate(1564.71875 0)"/>
    <use xlink:href="#DejaVuSans-3" transform="translate(1633.328125 0)"/>
    <use xlink:href="#DejaVuSans-20" transform="translate(1665.109375 0)"/>
    <use xlink:href="#DejaVuSans-3" transform="translate(1748.90625 0)"/>
    <use xlink:href="#DejaVuSans-14" transform="translate(1780.6875 0)"/>
    <use xlink:href="#DejaVuSans-3" transform="translate(1844.3125 0)"/>
    <use xlink:href="#DejaVuSans-13" transform="translate(1876.09375 0)"/>
    <use xlink:href="#DejaVuSans-17" transform="translate(1939.71875 0)"/>
    <use xlink:href="#DejaVuSans-1b" transform="translate(2003.34375 0)"/>
    <use xlink:href="#DejaVuSans-3" transform="translate(2066.96875 0)"/>
    <use xlink:href="#DejaVuSans-18" transform="translate(2098.75 0)"/>
    <use xlink:href="#DejaVuSans-1a" transform="translate(2162.375 0)"/>
    <use xlink:href="#DejaVuSans-19" transform="translate(2226 0)"/>
    <use xlink:href="#DejaVuSans-3" transform="translate(2289.625 0)"/>
    <use xlink:href="#DejaVuSans-45" transform="translate(2321.40625 0)"/>
    <use xlink:href="#DejaVuSans-5c" transform="translate(2384.890625 0)"/>
    <use xlink:href="#DejaVuSans-57" transform="translate(2444.078125 0)"/>
    <use xlink:href="#DejaVuSans-48" transform="translate(2483.28125 0)"/>
    <use xlink:href="#DejaVuSans-56" transform="translate(2544.8125 0)"/>
    <use xlink:href="#DejaVuSans-3" transform="translate(2596.90625 0)"/>
    <use xlink:href="#DejaVuSans-79" transform="translate(2628.6875 0)"/>
    <use xlink:href="#DejaVuSans-3" transform="translate(2660.46875 0)"/>
    <use xlink:href="#DejaVuSans-50" transform="translate(2692.25 0)"/>
    <use xlink:href="#DejaVuSans-48" transform="translate(2789.65625 0)"/>
    <use xlink:href="#DejaVuSans-47" transform="translate(2851.1875 0)"/>
    <use xlink:href="#DejaVuSans-4c" transform="translate(2914.671875 0)"/>
    <use xlink:href="#DejaVuSans-44" transform="translate(2942.453125 0)"/>
    <use xlink:href="#DejaVuSans-51" transform="translate(3003.734375 0)"/>
    <use xlink:href="#DejaVuSans-44" transform="translate(3067.109375 0)"/>
    <use xlink:href="#DejaVuSans-56" transform="translate(3128.390625 0)"/>
    <use xlink:href="#DejaVuSans-3" transform="translate(3180.484375 0)"/>
    <use xlink:href="#DejaVuSans-47" transform="translate(3212.265625 0)"/>
    <use xlink:href="#DejaVuSans-48" transform="translate(3275.75 0)"/>
    <use xlink:href="#DejaVuSans-3" transform="translate(3337.28125 0)"/>
    <use xlink:href="#DejaVuSans-18" transform="translate(3369.0625 0)"/>
    <use xlink:href="#DejaVuSans-3" transform="translate(3432.6875 0)"/>
    <use xlink:href="#DejaVuSans-55" transform="translate(3464.46875 0)"/>
    <use xlink:href="#DejaVuSans-48" transform="translate(3503.375 0)"/>
    <use xlink:href="#DejaVuSans-53" transform="translate(3564.90625 0)"/>
    <use xlink:href="#DejaVuSans-48" transform="translate(3628.390625 0)"/>
    <use xlink:href="#DejaVuSans-57" transform="translate(3689.921875 0)"/>
    <use xlink:href="#DejaVuSans-4c" transform="translate(3729.125 0)"/>
    <use xlink:href="#DejaVuSans-46" transform="translate(3756.90625 0)"/>
    <use xlink:href="#DejaVuSans-4c" transform="translate(3811.890625 0)"/>
    <use xlink:href="#DejaVuSans-52" transform="translate(3839.671875 0)"/>
    <use xlink:href="#DejaVuSans-51" transform="translate(3900.859375 0)"/>
    <use xlink:href="#DejaVuSans-48" transform="translate(3964.234375 0)"/>
    <use xlink:href="#DejaVuSans-56" transform="translate(4025.765625 0)"/>
   </g>
   <!-- * En B+ agrupado, datos incluye el árbol integrado; no hay archivo secundario. -->
   <g transform="translate(253.273359 353.936772) scale(0.09 -0.09)">
    <defs>
     <path id="DejaVuSans-f" d="M 750 794
L 1409 794
L 1409 256
L 897 -744
L 494 -744
L 750 256
L 750 794
z
" transform="scale(0.015625)"/>
     <path id="DejaVuSans-a3" d="M 2194 1759
Q 1497 1759 1228 1600
Q 959 1441 959 1056
Q 959 750 1161 570
Q 1363 391 1709 391
Q 2188 391 2477 730
Q 2766 1069 2766 1631
L 2766 1759
L 2194 1759
z
M 3341 1997
L 3341 0
L 2766 0
L 2766 531
Q 2569 213 2275 61
Q 1981 -91 1556 -91
Q 1019 -91 701 211
Q 384 513 384 1019
Q 384 1609 779 1909
Q 1175 2209 1959 2209
L 2766 2209
L 2766 2266
Q 2766 2663 2505 2880
Q 2244 3097 1772 3097
Q 1472 3097 1187 3025
Q 903 2953 641 2809
L 641 3341
Q 956 3463 1253 3523
Q 1550 3584 1831 3584
Q 2591 3584 2966 3190
Q 3341 2797 3341 1997
z
M 2290 5119
L 2912 5119
L 1894 3944
L 1415 3944
L 2290 5119
z
" transform="scale(0.015625)"/>
     <path id="DejaVuSans-1e" d="M 750 3309
L 1409 3309
L 1409 2516
L 750 2516
L 750 3309
z
M 750 794
L 1409 794
L 1409 256
L 897 -744
L 494 -744
L 750 256
L 750 794
z
" transform="scale(0.015625)"/>
    </defs>
    <use xlink:href="#DejaVuSans-d"/>
    <use xlink:href="#DejaVuSans-3" transform="translate(50 0)"/>
    <use xlink:href="#DejaVuSans-28" transform="translate(81.78125 0)"/>
    <use xlink:href="#DejaVuSans-51" transform="translate(144.96875 0)"/>
    <use xlink:href="#DejaVuSans-3" transform="translate(208.34375 0)"/>
    <use xlink:href="#DejaVuSans-25" transform="translate(240.125 0)"/>
    <use xlink:href="#DejaVuSans-e" transform="translate(308.734375 0)"/>
    <use xlink:href="#DejaVuSans-3" transform="translate(392.53125 0)"/>
    <use xlink:href="#DejaVuSans-44" transform="translate(424.3125 0)"/>
    <use xlink:href="#DejaVuSans-4a" transform="translate(485.59375 0)"/>
    <use xlink:href="#DejaVuSans-55" transform="translate(549.078125 0)"/>
    <use xlink:href="#DejaVuSans-58" transform="translate(590.1875 0)"/>
    <use xlink:href="#DejaVuSans-53" transform="translate(653.5625 0)"/>
    <use xlink:href="#DejaVuSans-44" transform="translate(717.046875 0)"/>
    <use xlink:href="#DejaVuSans-47" transform="translate(778.328125 0)"/>
    <use xlink:href="#DejaVuSans-52" transform="translate(841.8125 0)"/>
    <use xlink:href="#DejaVuSans-f" transform="translate(903 0)"/>
    <use xlink:href="#DejaVuSans-3" transform="translate(934.78125 0)"/>
    <use xlink:href="#DejaVuSans-47" transform="translate(966.5625 0)"/>
    <use xlink:href="#DejaVuSans-44" transform="translate(1030.046875 0)"/>
    <use xlink:href="#DejaVuSans-57" transform="translate(1091.328125 0)"/>
    <use xlink:href="#DejaVuSans-52" transform="translate(1130.53125 0)"/>
    <use xlink:href="#DejaVuSans-56" transform="translate(1191.71875 0)"/>
    <use xlink:href="#DejaVuSans-3" transform="translate(1243.8125 0)"/>
    <use xlink:href="#DejaVuSans-4c" transform="translate(1275.59375 0)"/>
    <use xlink:href="#DejaVuSans-51" transform="translate(1303.375 0)"/>
    <use xlink:href="#DejaVuSans-46" transform="translate(1366.75 0)"/>
    <use xlink:href="#DejaVuSans-4f" transform="translate(1421.734375 0)"/>
    <use xlink:href="#DejaVuSans-58" transform="translate(1449.515625 0)"/>
    <use xlink:href="#DejaVuSans-5c" transform="translate(1512.890625 0)"/>
    <use xlink:href="#DejaVuSans-48" transform="translate(1572.078125 0)"/>
    <use xlink:href="#DejaVuSans-3" transform="translate(1633.609375 0)"/>
    <use xlink:href="#DejaVuSans-48" transform="translate(1665.390625 0)"/>
    <use xlink:href="#DejaVuSans-4f" transform="translate(1726.921875 0)"/>
    <use xlink:href="#DejaVuSans-3" transform="translate(1754.703125 0)"/>
    <use xlink:href="#DejaVuSans-a3" transform="translate(1786.484375 0)"/>
    <use xlink:href="#DejaVuSans-55" transform="translate(1847.765625 0)"/>
    <use xlink:href="#DejaVuSans-45" transform="translate(1888.875 0)"/>
    <use xlink:href="#DejaVuSans-52" transform="translate(1952.359375 0)"/>
    <use xlink:href="#DejaVuSans-4f" transform="translate(2013.546875 0)"/>
    <use xlink:href="#DejaVuSans-3" transform="translate(2041.328125 0)"/>
    <use xlink:href="#DejaVuSans-4c" transform="translate(2073.109375 0)"/>
    <use xlink:href="#DejaVuSans-51" transform="translate(2100.890625 0)"/>
    <use xlink:href="#DejaVuSans-57" transform="translate(2164.265625 0)"/>
    <use xlink:href="#DejaVuSans-48" transform="translate(2203.46875 0)"/>
    <use xlink:href="#DejaVuSans-4a" transform="translate(2265 0)"/>
    <use xlink:href="#DejaVuSans-55" transform="translate(2328.484375 0)"/>
    <use xlink:href="#DejaVuSans-44" transform="translate(2369.59375 0)"/>
    <use xlink:href="#DejaVuSans-47" transform="translate(2430.875 0)"/>
    <use xlink:href="#DejaVuSans-52" transform="translate(2494.359375 0)"/>
    <use xlink:href="#DejaVuSans-1e" transform="translate(2555.546875 0)"/>
    <use xlink:href="#DejaVuSans-3" transform="translate(2589.234375 0)"/>
    <use xlink:href="#DejaVuSans-51" transform="translate(2621.015625 0)"/>
    <use xlink:href="#DejaVuSans-52" transform="translate(2684.390625 0)"/>
    <use xlink:href="#DejaVuSans-3" transform="translate(2745.578125 0)"/>
    <use xlink:href="#DejaVuSans-4b" transform="translate(2777.359375 0)"/>
    <use xlink:href="#DejaVuSans-44" transform="translate(2840.734375 0)"/>
    <use xlink:href="#DejaVuSans-5c" transform="translate(2902.015625 0)"/>
    <use xlink:href="#DejaVuSans-3" transform="translate(2961.203125 0)"/>
    <use xlink:href="#DejaVuSans-44" transform="translate(2992.984375 0)"/>
    <use xlink:href="#DejaVuSans-55" transform="translate(3054.265625 0)"/>
    <use xlink:href="#DejaVuSans-46" transform="translate(3093.171875 0)"/>
    <use xlink:href="#DejaVuSans-4b" transform="translate(3148.15625 0)"/>
    <use xlink:href="#DejaVuSans-4c" transform="translate(3211.53125 0)"/>
    <use xlink:href="#DejaVuSans-59" transform="translate(3239.3125 0)"/>
    <use xlink:href="#DejaVuSans-52" transform="translate(3298.5 0)"/>
    <use xlink:href="#DejaVuSans-3" transform="translate(3359.6875 0)"/>
    <use xlink:href="#DejaVuSans-56" transform="translate(3391.46875 0)"/>
    <use xlink:href="#DejaVuSans-48" transform="translate(3443.5625 0)"/>
    <use xlink:href="#DejaVuSans-46" transform="translate(3505.09375 0)"/>
    <use xlink:href="#DejaVuSans-58" transform="translate(3560.078125 0)"/>
    <use xlink:href="#DejaVuSans-51" transform="translate(3623.453125 0)"/>
    <use xlink:href="#DejaVuSans-47" transform="translate(3686.828125 0)"/>
    <use xlink:href="#DejaVuSans-44" transform="translate(3750.3125 0)"/>
    <use xlink:href="#DejaVuSans-55" transform="translate(3811.59375 0)"/>
    <use xlink:href="#DejaVuSans-4c" transform="translate(3852.703125 0)"/>
    <use xlink:href="#DejaVuSans-52" transform="translate(3880.484375 0)"/>
    <use xlink:href="#DejaVuSans-11" transform="translate(3939.921875 0)"/>
   </g>
  </g>
 </g>
 <defs>
  <clipPath id="pc38571ec99">
   <rect x="46.436959" y="55.325017" width="245.984676" height="245.104419"/>
  </clipPath>
  <clipPath id="pc2be419464">
   <rect x="335.496334" y="55.325017" width="245.984676" height="245.104419"/>
  </clipPath>
  <clipPath id="pcec066c22a">
   <rect x="615.015084" y="55.325017" width="245.984676" height="245.104419"/>
  </clipPath>
 </defs>
 <defs>
  <pattern id="h378b65381a" patternUnits="userSpaceOnUse" x="0" y="0" width="72" height="72">
   <rect x="0" y="0" width="73" height="73" fill="#0072b2"/>
   <path d="M -36 36
L 36 -36
M -32 40
L 40 -32
M -28 44
L 44 -28
M -24 48
L 48 -24
M -20 52
L 52 -20
M -16 56
L 56 -16
M -12 60
L 60 -12
M -8 64
L 64 -8
M -4 68
L 68 -4
M 0 72
L 72 0
M 4 76
L 76 4
M 8 80
L 80 8
M 12 84
L 84 12
M 16 88
L 88 16
M 20 92
L 92 20
M 24 96
L 96 24
M 28 100
L 100 28
M 32 104
L 104 32
M 36 108
L 108 36
" style="fill: #000000; stroke: #000000; stroke-width: 1.0; stroke-linecap: butt; stroke-linejoin: miter"/>
  </pattern>
  <pattern id="h0713d1e354" patternUnits="userSpaceOnUse" x="0" y="0" width="72" height="72">
   <rect x="0" y="0" width="73" height="73" fill="#d55e00"/>
   <path d="M -36 36
L 36 -36
M -32 40
L 40 -32
M -28 44
L 44 -28
M -24 48
L 48 -24
M -20 52
L 52 -20
M -16 56
L 56 -16
M -12 60
L 60 -12
M -8 64
L 64 -8
M -4 68
L 68 -4
M 0 72
L 72 0
M 4 76
L 76 4
M 8 80
L 80 8
M 12 84
L 84 12
M 16 88
L 88 16
M 20 92
L 92 20
M 24 96
L 96 24
M 28 100
L 100 28
M 32 104
L 104 32
M 36 108
L 108 36
" style="fill: #000000; stroke: #000000; stroke-width: 1.0; stroke-linecap: butt; stroke-linejoin: miter"/>
  </pattern>
  <pattern id="h692345816e" patternUnits="userSpaceOnUse" x="0" y="0" width="72" height="72">
   <rect x="0" y="0" width="73" height="73" fill="#009e73"/>
   <path d="M -36 36
L 36 -36
M -32 40
L 40 -32
M -28 44
L 44 -28
M -24 48
L 48 -24
M -20 52
L 52 -20
M -16 56
L 56 -16
M -12 60
L 60 -12
M -8 64
L 64 -8
M -4 68
L 68 -4
M 0 72
L 72 0
M 4 76
L 76 4
M 8 80
L 80 8
M 12 84
L 84 12
M 16 88
L 88 16
M 20 92
L 92 20
M 24 96
L 96 24
M 28 100
L 100 28
M 32 104
L 104 32
M 36 108
L 108 36
" style="fill: #000000; stroke: #000000; stroke-width: 1.0; stroke-linecap: butt; stroke-linejoin: miter"/>
  </pattern>
  <pattern id="hfe961800ec" patternUnits="userSpaceOnUse" x="0" y="0" width="72" height="72">
   <rect x="0" y="0" width="73" height="73" fill="#808080"/>
   <path d="M -36 36
L 36 -36
M -32 40
L 40 -32
M -28 44
L 44 -28
M -24 48
L 48 -24
M -20 52
L 52 -20
M -16 56
L 56 -16
M -12 60
L 60 -12
M -8 64
L 64 -8
M -4 68
L 68 -4
M 0 72
L 72 0
M 4 76
L 76 4
M 8 80
L 80 8
M 12 84
L 84 12
M 16 88
L 88 16
M 20 92
L 92 20
M 24 96
L 96 24
M 28 100
L 100 28
M 32 104
L 104 32
M 36 108
L 108 36
" style="fill: #000000; stroke: #000000; stroke-width: 1.0; stroke-linecap: butt; stroke-linejoin: miter"/>
  </pattern>
 </defs>
</svg>
